# Alien Wild West asset pack - OBJ fallback. Y up, 1 unit = 1 m.
mtllib AlienWildWest.mtl
o Char_Native_Kid_Body
v 0.00000 0.20000 0.00000
v 0.27600 0.23000 0.00000
v 0.25499 0.23000 0.09717
v 0.19516 0.23000 0.17955
v 0.10562 0.23000 0.23459
v 0.00000 0.23000 0.25392
v -0.10562 0.23000 0.23459
v -0.19516 0.23000 0.17955
v -0.25499 0.23000 0.09717
v -0.27600 0.23000 0.00000
v -0.25499 0.23000 -0.09717
v -0.19516 0.23000 -0.17955
v -0.10562 0.23000 -0.23459
v -0.00000 0.23000 -0.25392
v 0.10562 0.23000 -0.23459
v 0.19516 0.23000 -0.17955
v 0.25499 0.23000 -0.09717
v 0.38640 0.32760 0.00000
v 0.35699 0.32760 0.13604
v 0.27323 0.32760 0.25137
v 0.14787 0.32760 0.32843
v 0.00000 0.32760 0.35549
v -0.14787 0.32760 0.32843
v -0.27323 0.32760 0.25137
v -0.35699 0.32760 0.13604
v -0.38640 0.32760 0.00000
v -0.35699 0.32760 -0.13604
v -0.27323 0.32760 -0.25137
v -0.14787 0.32760 -0.32843
v -0.00000 0.32760 -0.35549
v 0.14787 0.32760 -0.32843
v 0.27323 0.32760 -0.25137
v 0.35699 0.32760 -0.13604
v 0.39560 0.50700 0.00000
v 0.36549 0.50700 0.13928
v 0.27973 0.50700 0.25735
v 0.15139 0.50700 0.33625
v 0.00000 0.50700 0.36395
v -0.15139 0.50700 0.33625
v -0.27973 0.50700 0.25735
v -0.36549 0.50700 0.13928
v -0.39560 0.50700 0.00000
v -0.36549 0.50700 -0.13928
v -0.27973 0.50700 -0.25735
v -0.15139 0.50700 -0.33625
v -0.00000 0.50700 -0.36395
v 0.15139 0.50700 -0.33625
v 0.27973 0.50700 -0.25735
v 0.36549 0.50700 -0.13928
v 0.34960 0.68640 0.00000
v 0.32299 0.68640 0.12308
v 0.24720 0.68640 0.22743
v 0.13379 0.68640 0.29715
v 0.00000 0.68640 0.32163
v -0.13379 0.68640 0.29715
v -0.24720 0.68640 0.22743
v -0.32299 0.68640 0.12308
v -0.34960 0.68640 0.00000
v -0.32299 0.68640 -0.12308
v -0.24720 0.68640 -0.22743
v -0.13379 0.68640 -0.29715
v -0.00000 0.68640 -0.32163
v 0.13379 0.68640 -0.29715
v 0.24720 0.68640 -0.22743
v 0.32299 0.68640 -0.12308
v 0.24840 0.82680 0.00000
v 0.22949 0.82680 0.08745
v 0.17565 0.82680 0.16159
v 0.09506 0.82680 0.21113
v 0.00000 0.82680 0.22853
v -0.09506 0.82680 0.21113
v -0.17565 0.82680 0.16159
v -0.22949 0.82680 0.08745
v -0.24840 0.82680 0.00000
v -0.22949 0.82680 -0.08745
v -0.17565 0.82680 -0.16159
v -0.09506 0.82680 -0.21113
v -0.00000 0.82680 -0.22853
v 0.09506 0.82680 -0.21113
v 0.17565 0.82680 -0.16159
v 0.22949 0.82680 -0.08745
v 0.11040 0.89700 0.00000
v 0.10200 0.89700 0.03887
v 0.07806 0.89700 0.07182
v 0.04225 0.89700 0.09384
v 0.00000 0.89700 0.10157
v -0.04225 0.89700 0.09384
v -0.07806 0.89700 0.07182
v -0.10200 0.89700 0.03887
v -0.11040 0.89700 0.00000
v -0.10200 0.89700 -0.03887
v -0.07806 0.89700 -0.07182
v -0.04225 0.89700 -0.09384
v -0.00000 0.89700 -0.10157
v 0.04225 0.89700 -0.09384
v 0.07806 0.89700 -0.07182
v 0.10200 0.89700 -0.03887
v 0.00000 0.91260 0.00000
v 0.00000 0.26000 0.12880
v 0.23000 0.30000 0.12880
v 0.19919 0.30000 0.19780
v 0.11500 0.30000 0.24831
v 0.00000 0.30000 0.26680
v -0.11500 0.30000 0.24831
v -0.19919 0.30000 0.19780
v -0.23000 0.30000 0.12880
v -0.19919 0.30000 0.05980
v -0.11500 0.30000 0.00929
v -0.00000 0.30000 -0.00920
v 0.11500 0.30000 0.00929
v 0.19919 0.30000 0.05980
v 0.27600 0.35100 0.12880
v 0.23902 0.35100 0.21160
v 0.13800 0.35100 0.27221
v 0.00000 0.35100 0.29440
v -0.13800 0.35100 0.27221
v -0.23902 0.35100 0.21160
v -0.27600 0.35100 0.12880
v -0.23902 0.35100 0.04600
v -0.13800 0.35100 -0.01461
v -0.00000 0.35100 -0.03680
v 0.13800 0.35100 -0.01461
v 0.23902 0.35100 0.04600
v 0.23000 0.48360 0.12880
v 0.19919 0.48360 0.19780
v 0.11500 0.48360 0.24831
v 0.00000 0.48360 0.26680
v -0.11500 0.48360 0.24831
v -0.19919 0.48360 0.19780
v -0.23000 0.48360 0.12880
v -0.19919 0.48360 0.05980
v -0.11500 0.48360 0.00929
v -0.00000 0.48360 -0.00920
v 0.11500 0.48360 0.00929
v 0.19919 0.48360 0.05980
v 0.00000 0.53040 0.12880
v 0.40958 0.32760 0.00000
v 0.37841 0.32760 0.14420
v 0.28962 0.32760 0.26645
v 0.15674 0.32760 0.34813
v 0.00000 0.32760 0.37682
v -0.15674 0.32760 0.34813
v -0.28962 0.32760 0.26645
v -0.37841 0.32760 0.14420
v -0.40958 0.32760 0.00000
v -0.37841 0.32760 -0.14420
v 0.37841 0.32760 -0.14420
v 0.41934 0.50700 0.00000
v 0.38742 0.50700 0.14764
v 0.29652 0.50700 0.27279
v 0.16047 0.50700 0.35642
v 0.00000 0.50700 0.38579
v -0.16047 0.50700 0.35642
v -0.29652 0.50700 0.27279
v -0.38742 0.50700 0.14764
v -0.41934 0.50700 0.00000
v -0.38742 0.50700 -0.14764
v 0.38742 0.50700 -0.14764
v 0.08485 0.39780 0.31468
v -0.08485 0.39780 0.31468
v -0.08485 0.39780 0.48439
v 0.08485 0.39780 0.48439
v 0.00000 0.22780 0.39954
v 0.03000 0.81260 -0.08000
v 0.37128 0.97331 -0.11217
v 0.26355 0.97028 0.10464
v 0.01398 0.90343 0.20387
v -0.24340 0.88089 0.10464
v -0.34566 0.84690 -0.11217
v -0.22075 0.75243 -0.29681
v 0.04602 0.72177 -0.36387
v 0.28621 0.84182 -0.29681
v 0.39148 1.01998 -0.12596
v 0.27618 1.01267 0.10886
v 0.00813 0.93665 0.21706
v -0.26977 0.91640 0.10886
v -0.38061 0.88384 -0.12596
v -0.24537 0.77806 -0.32348
v 0.04262 0.74100 -0.39436
v 0.30058 0.87433 -0.32348
v 0.02538 0.83883 -0.08865
v 0.02769 0.82571 -0.08433
v 0.21382 0.85853 -0.08433
v 0.15321 0.88349 0.02371
v 0.01907 0.87460 0.06846
v -0.11002 0.83708 0.02371
v -0.15844 0.79289 -0.08433
v -0.09783 0.76794 -0.19236
v 0.03631 0.77682 -0.23711
v 0.16540 0.81435 -0.19236
v 0.20680 0.97898 -0.12326
v 0.14169 1.00578 -0.00722
v -0.00238 0.99624 0.04084
v -0.14103 0.95593 -0.00722
v -0.19304 0.90847 -0.12326
v -0.12794 0.88167 -0.23930
v 0.01614 0.89121 -0.28737
v 0.15479 0.93152 -0.23930
v 0.15614 1.06469 -0.15355
v 0.10227 1.08687 -0.05751
v -0.01697 1.07897 -0.01774
v -0.13171 1.04561 -0.05751
v -0.17475 1.00634 -0.15355
v -0.12088 0.98416 -0.24958
v -0.00164 0.99206 -0.28936
v 0.11310 1.02541 -0.24958
v 0.07804 1.02387 -0.14489
v 0.05110 1.03497 -0.09688
v -0.00851 1.03102 -0.07699
v -0.06589 1.01434 -0.09688
v -0.08741 0.99470 -0.14489
v -0.06047 0.98361 -0.19291
v -0.00085 0.98756 -0.21280
v 0.05652 1.00424 -0.19291
v -0.00468 1.00929 -0.14489
v 0.22184 0.87347 -0.08865
v 0.15787 0.89981 0.02539
v 0.01628 0.89043 0.07262
v -0.11998 0.85082 0.02539
v -0.17109 0.80418 -0.08865
v -0.10711 0.77784 -0.20269
v 0.03448 0.78722 -0.24993
v 0.17073 0.82683 -0.20269
v 0.22065 0.92058 -0.10379
v 0.15442 0.94785 0.01425
v 0.00786 0.93813 0.06314
v -0.13318 0.89713 0.01425
v -0.18608 0.84886 -0.10379
v -0.11986 0.82159 -0.22183
v 0.02670 0.83130 -0.27073
v 0.16774 0.87230 -0.22183
vn 0.1080 -0.9939 0.0234
vn 0.0916 -0.9936 0.0665
vn 0.0611 -0.9932 0.0995
vn 0.0215 -0.9929 0.1173
vn -0.0215 -0.9929 0.1173
vn -0.0611 -0.9932 0.0995
vn -0.0916 -0.9936 0.0665
vn -0.1080 -0.9939 0.0234
vn -0.1080 -0.9939 -0.0234
vn -0.0916 -0.9936 -0.0665
vn -0.0611 -0.9932 -0.0995
vn -0.0215 -0.9929 -0.1173
vn 0.0215 -0.9929 -0.1173
vn 0.0611 -0.9932 -0.0995
vn 0.0916 -0.9936 -0.0665
vn 0.1080 -0.9939 -0.0234
vn 0.6557 -0.7416 0.1418
vn 0.6557 -0.7416 0.1418
vn 0.5498 -0.7336 0.3993
vn 0.5498 -0.7336 0.3993
vn 0.3619 -0.7227 0.5888
vn 0.3619 -0.7227 0.5888
vn 0.1258 -0.7153 0.6874
vn 0.1258 -0.7153 0.6874
vn -0.1258 -0.7153 0.6874
vn -0.1258 -0.7153 0.6874
vn -0.3619 -0.7227 0.5888
vn -0.3619 -0.7227 0.5888
vn -0.5498 -0.7336 0.3993
vn -0.5498 -0.7336 0.3993
vn -0.6557 -0.7416 0.1418
vn -0.6557 -0.7416 0.1418
vn -0.6557 -0.7416 -0.1418
vn -0.6557 -0.7416 -0.1418
vn -0.5498 -0.7336 -0.3993
vn -0.5498 -0.7336 -0.3993
vn -0.3619 -0.7227 -0.5888
vn -0.3619 -0.7227 -0.5888
vn -0.1258 -0.7153 -0.6874
vn -0.1258 -0.7153 -0.6874
vn 0.1258 -0.7153 -0.6874
vn 0.1258 -0.7153 -0.6874
vn 0.3619 -0.7227 -0.5888
vn 0.3619 -0.7227 -0.5888
vn 0.5498 -0.7336 -0.3993
vn 0.5498 -0.7336 -0.3993
vn 0.6557 -0.7416 -0.1418
vn 0.6557 -0.7416 -0.1418
vn 0.9762 -0.0501 0.2111
vn 0.9762 -0.0501 0.2111
vn 0.8082 -0.0489 0.5869
vn 0.8082 -0.0489 0.5869
vn 0.5231 -0.0474 0.8510
vn 0.5231 -0.0474 0.8510
vn 0.1798 -0.0464 0.9826
vn 0.1798 -0.0464 0.9826
vn -0.1798 -0.0464 0.9826
vn -0.1798 -0.0464 0.9826
vn -0.5231 -0.0474 0.8510
vn -0.5231 -0.0474 0.8510
vn -0.8082 -0.0489 0.5869
vn -0.8082 -0.0489 0.5869
vn -0.9762 -0.0501 0.2111
vn -0.9762 -0.0501 0.2111
vn -0.9762 -0.0501 -0.2111
vn -0.9762 -0.0501 -0.2111
vn -0.8082 -0.0489 -0.5869
vn -0.8082 -0.0489 -0.5869
vn -0.5231 -0.0474 -0.8510
vn -0.5231 -0.0474 -0.8510
vn -0.1798 -0.0464 -0.9826
vn -0.1798 -0.0464 -0.9826
vn 0.1798 -0.0464 -0.9826
vn 0.1798 -0.0464 -0.9826
vn 0.5231 -0.0474 -0.8510
vn 0.5231 -0.0474 -0.8510
vn 0.8082 -0.0489 -0.5869
vn 0.8082 -0.0489 -0.5869
vn 0.9762 -0.0501 -0.2111
vn 0.9762 -0.0501 -0.2111
vn 0.9481 0.2431 0.2050
vn 0.9481 0.2431 0.2050
vn 0.7859 0.2377 0.5708
vn 0.7859 0.2377 0.5708
vn 0.5096 0.2307 0.8289
vn 0.5096 0.2307 0.8289
vn 0.1754 0.2260 0.9582
vn 0.1754 0.2260 0.9582
vn -0.1754 0.2260 0.9582
vn -0.1754 0.2260 0.9582
vn -0.5096 0.2307 0.8289
vn -0.5096 0.2307 0.8289
vn -0.7859 0.2377 0.5708
vn -0.7859 0.2377 0.5708
vn -0.9481 0.2431 0.2050
vn -0.9481 0.2431 0.2050
vn -0.9481 0.2431 -0.2050
vn -0.9481 0.2431 -0.2050
vn -0.7859 0.2377 -0.5708
vn -0.7859 0.2377 -0.5708
vn -0.5096 0.2307 -0.8289
vn -0.5096 0.2307 -0.8289
vn -0.1754 0.2260 -0.9582
vn -0.1754 0.2260 -0.9582
vn 0.1754 0.2260 -0.9582
vn 0.1754 0.2260 -0.9582
vn 0.5096 0.2307 -0.8289
vn 0.5096 0.2307 -0.8289
vn 0.7859 0.2377 -0.5708
vn 0.7859 0.2377 -0.5708
vn 0.9481 0.2431 -0.2050
vn 0.9481 0.2431 -0.2050
vn 0.7990 0.5759 0.1728
vn 0.7990 0.5759 0.1728
vn 0.6666 0.5668 0.4841
vn 0.6666 0.5668 0.4841
vn 0.4358 0.5545 0.7089
vn 0.4358 0.5545 0.7089
vn 0.1508 0.5463 0.8239
vn 0.1508 0.5463 0.8239
vn -0.1508 0.5463 0.8239
vn -0.1508 0.5463 0.8239
vn -0.4358 0.5545 0.7089
vn -0.4358 0.5545 0.7089
vn -0.6666 0.5668 0.4841
vn -0.6666 0.5668 0.4841
vn -0.7990 0.5759 0.1728
vn -0.7990 0.5759 0.1728
vn -0.7990 0.5759 -0.1728
vn -0.7990 0.5759 -0.1728
vn -0.6666 0.5668 -0.4841
vn -0.6666 0.5668 -0.4841
vn -0.4358 0.5545 -0.7089
vn -0.4358 0.5545 -0.7089
vn -0.1508 0.5463 -0.8239
vn -0.1508 0.5463 -0.8239
vn 0.1508 0.5463 -0.8239
vn 0.1508 0.5463 -0.8239
vn 0.4358 0.5545 -0.7089
vn 0.4358 0.5545 -0.7089
vn 0.6666 0.5668 -0.4841
vn 0.6666 0.5668 -0.4841
vn 0.7990 0.5759 -0.1728
vn 0.7990 0.5759 -0.1728
vn 0.4512 0.8871 0.0976
vn 0.4512 0.8871 0.0976
vn 0.3806 0.8825 0.2764
vn 0.3806 0.8825 0.2764
vn 0.2525 0.8761 0.4107
vn 0.2525 0.8761 0.4107
vn 0.0882 0.8717 0.4820
vn 0.0882 0.8717 0.4820
vn -0.0882 0.8717 0.4820
vn -0.0882 0.8717 0.4820
vn -0.2525 0.8761 0.4107
vn -0.2525 0.8761 0.4107
vn -0.3806 0.8825 0.2764
vn -0.3806 0.8825 0.2764
vn -0.4512 0.8871 0.0976
vn -0.4512 0.8871 0.0976
vn -0.4512 0.8871 -0.0976
vn -0.4512 0.8871 -0.0976
vn -0.3806 0.8825 -0.2764
vn -0.3806 0.8825 -0.2764
vn -0.2525 0.8761 -0.4107
vn -0.2525 0.8761 -0.4107
vn -0.0882 0.8717 -0.4820
vn -0.0882 0.8717 -0.4820
vn 0.0882 0.8717 -0.4820
vn 0.0882 0.8717 -0.4820
vn 0.2525 0.8761 -0.4107
vn 0.2525 0.8761 -0.4107
vn 0.3806 0.8825 -0.2764
vn 0.3806 0.8825 -0.2764
vn 0.4512 0.8871 -0.0976
vn 0.4512 0.8871 -0.0976
vn 0.1399 0.9897 0.0302
vn 0.1185 0.9892 0.0861
vn 0.0791 0.9885 0.1287
vn 0.0278 0.9880 0.1518
vn -0.0278 0.9880 0.1518
vn -0.0791 0.9885 0.1287
vn -0.1185 0.9892 0.0861
vn -0.1399 0.9897 0.0302
vn -0.1399 0.9897 -0.0302
vn -0.1185 0.9892 -0.0861
vn -0.0791 0.9885 -0.1287
vn -0.0278 0.9880 -0.1518
vn 0.0278 0.9880 -0.1518
vn 0.0791 0.9885 -0.1287
vn 0.1185 0.9892 -0.0861
vn 0.1399 0.9897 -0.0302
vn 0.1708 -0.9823 0.0763
vn 0.1236 -0.9707 0.2060
vn 0.0447 -0.9595 0.2781
vn -0.0447 -0.9595 0.2781
vn -0.1236 -0.9707 0.2060
vn -0.1708 -0.9823 0.0763
vn -0.1708 -0.9823 -0.0763
vn -0.1236 -0.9707 -0.2060
vn -0.0447 -0.9595 -0.2781
vn 0.0447 -0.9595 -0.2781
vn 0.1236 -0.9707 -0.2060
vn 0.1708 -0.9823 -0.0763
vn 0.7048 -0.6357 0.3148
vn 0.7048 -0.6357 0.3148
vn 0.4345 -0.5354 0.7242
vn 0.4345 -0.5354 0.7242
vn 0.1400 -0.4713 0.8708
vn 0.1400 -0.4713 0.8708
vn -0.1400 -0.4713 0.8708
vn -0.1400 -0.4713 0.8708
vn -0.4345 -0.5354 0.7242
vn -0.4345 -0.5354 0.7242
vn -0.7048 -0.6357 0.3148
vn -0.7048 -0.6357 0.3148
vn -0.7048 -0.6357 -0.3148
vn -0.7048 -0.6357 -0.3148
vn -0.4345 -0.5354 -0.7242
vn -0.4345 -0.5354 -0.7242
vn -0.1400 -0.4713 -0.8708
vn -0.1400 -0.4713 -0.8708
vn 0.1400 -0.4713 -0.8708
vn 0.1400 -0.4713 -0.8708
vn 0.4345 -0.5354 -0.7242
vn 0.4345 -0.5354 -0.7242
vn 0.7048 -0.6357 -0.3148
vn 0.7048 -0.6357 -0.3148
vn 0.8705 0.3020 0.3887
vn 0.8705 0.3020 0.3887
vn 0.4999 0.2369 0.8331
vn 0.4999 0.2369 0.8331
vn 0.1555 0.2013 0.9671
vn 0.1555 0.2013 0.9671
vn -0.1555 0.2013 0.9671
vn -0.1555 0.2013 0.9671
vn -0.4999 0.2369 0.8331
vn -0.4999 0.2369 0.8331
vn -0.8705 0.3020 0.3887
vn -0.8705 0.3020 0.3887
vn -0.8705 0.3020 -0.3887
vn -0.8705 0.3020 -0.3887
vn -0.4999 0.2369 -0.8331
vn -0.4999 0.2369 -0.8331
vn -0.1555 0.2013 -0.9671
vn -0.1555 0.2013 -0.9671
vn 0.1555 0.2013 -0.9671
vn 0.1555 0.2013 -0.9671
vn 0.4999 0.2369 -0.8331
vn 0.4999 0.2369 -0.8331
vn 0.8705 0.3020 -0.3887
vn 0.8705 0.3020 -0.3887
vn 0.1986 0.9761 0.0887
vn 0.1431 0.9606 0.2385
vn 0.0516 0.9458 0.3207
vn -0.0516 0.9458 0.3207
vn -0.1431 0.9606 0.2385
vn -0.1986 0.9761 0.0887
vn -0.1986 0.9761 -0.0887
vn -0.1431 0.9606 -0.2385
vn -0.0516 0.9458 -0.3207
vn 0.0516 0.9458 -0.3207
vn 0.1431 0.9606 -0.2385
vn 0.1986 0.9761 -0.0887
vn 0.9760 -0.0531 0.2110
vn 0.9760 -0.0531 0.2110
vn 0.8080 -0.0518 0.5869
vn 0.8080 -0.0518 0.5869
vn 0.5230 -0.0502 0.8508
vn 0.5230 -0.0502 0.8508
vn 0.1798 -0.0491 0.9825
vn 0.1798 -0.0491 0.9825
vn -0.1798 -0.0491 0.9825
vn -0.1798 -0.0491 0.9825
vn -0.5230 -0.0502 0.8508
vn -0.5230 -0.0502 0.8508
vn -0.8080 -0.0518 0.5869
vn -0.8080 -0.0518 0.5869
vn -0.9760 -0.0531 0.2110
vn -0.9760 -0.0531 0.2110
vn -0.9760 -0.0531 -0.2110
vn -0.9760 -0.0531 -0.2110
vn 0.9760 -0.0531 -0.2110
vn 0.9760 -0.0531 -0.2110
vn 0.0000 -0.4466 -0.8947
vn -0.8947 -0.4466 -0.0000
vn -0.0000 -0.4466 0.8947
vn 0.8947 -0.4466 0.0000
vn 0.0000 1.0000 0.0000
vn 0.0000 1.0000 0.0000
vn 0.4328 -0.8784 0.2027
vn 0.3571 -0.8836 0.3029
vn -0.0333 -0.9524 0.3029
vn -0.1062 -0.9735 0.2027
vn -0.1167 -0.9140 0.3886
vn -0.0333 -0.9524 0.3029
vn 0.3571 -0.8836 0.3029
vn 0.4223 -0.8189 0.3886
vn 0.8606 -0.2975 0.4133
vn 0.8686 -0.2495 0.4281
vn 0.4250 -0.2682 0.8645
vn 0.4093 -0.2103 0.8878
vn -0.3192 -0.3419 0.8838
vn -0.2996 -0.3972 0.8675
vn -0.7323 -0.5360 0.4200
vn -0.7034 -0.5723 0.4215
vn -0.6794 -0.7300 -0.0743
vn -0.7003 -0.7048 -0.1132
vn -0.2306 -0.8343 -0.5008
vn -0.2313 -0.7992 -0.5548
vn 0.4978 -0.6709 -0.5497
vn 0.4947 -0.7091 -0.5025
vn 0.9011 -0.4209 -0.1043
vn 0.8851 -0.4581 -0.0815
vn -0.4509 0.8712 -0.1943
vn -0.3709 0.8782 -0.3019
vn 0.0482 0.9521 -0.3019
vn 0.1257 0.9729 -0.1943
vn 0.1369 0.9092 -0.3932
vn 0.0482 0.9521 -0.3019
vn -0.3709 0.8782 -0.3019
vn -0.4396 0.8076 -0.3932
vn 0.1651 -0.9366 0.3090
vn 0.1651 -0.9366 0.3090
vn 0.1651 -0.9366 0.3090
vn 0.1651 -0.9366 0.3090
vn 0.1651 -0.9366 0.3090
vn 0.1651 -0.9366 0.3090
vn 0.1651 -0.9366 0.3090
vn 0.1651 -0.9366 0.3090
vn 0.8739 0.1949 0.4453
vn 0.8739 0.1949 0.4453
vn 0.2900 0.2603 0.9210
vn 0.2900 0.2603 0.9210
vn -0.3615 0.1454 0.9210
vn -0.3615 0.1454 0.9210
vn -0.8879 -0.1158 0.4453
vn -0.8879 -0.1158 0.4453
vn -0.8411 -0.3811 -0.3838
vn -0.8411 -0.3811 -0.3838
vn -0.2607 -0.4265 -0.8661
vn -0.2607 -0.4265 -0.8661
vn 0.3908 -0.3116 -0.8661
vn 0.3908 -0.3116 -0.8661
vn 0.9207 -0.0704 -0.3838
vn 0.9207 -0.0704 -0.3838
vn 0.7700 0.5619 0.3022
vn 0.7700 0.5619 0.3022
vn 0.2203 0.5892 0.7774
vn 0.2203 0.5892 0.7774
vn -0.4085 0.4783 0.7774
vn -0.4085 0.4783 0.7774
vn -0.9158 0.2646 0.3022
vn -0.9158 0.2646 0.3022
vn -0.8710 0.0107 -0.4911
vn -0.8710 0.0107 -0.4911
vn -0.3112 -0.0736 -0.9475
vn -0.3112 -0.0736 -0.9475
vn 0.3176 0.0373 -0.9475
vn 0.3176 0.0373 -0.9475
vn 0.8148 0.3080 -0.4911
vn 0.8148 0.3080 -0.4911
vn -0.4545 0.7776 -0.4346
vn -0.4545 0.7776 -0.4346
vn -0.2586 0.7325 -0.6297
vn -0.2586 0.7325 -0.6297
vn -0.0075 0.7768 -0.6297
vn -0.0075 0.7768 -0.6297
vn 0.1611 0.8861 -0.4346
vn 0.1611 0.8861 -0.4346
vn 0.1448 0.9788 -0.1449
vn 0.1448 0.9788 -0.1449
vn -0.0464 0.9972 0.0590
vn -0.0464 0.9972 0.0590
vn -0.2975 0.9529 0.0590
vn -0.2975 0.9529 0.0590
vn -0.4708 0.8703 -0.1449
vn -0.4708 0.8703 -0.1449
vn -0.1651 0.9366 -0.3090
vn -0.1651 0.9366 -0.3090
vn -0.1651 0.9366 -0.3090
vn -0.1651 0.9366 -0.3090
vn -0.1651 0.9366 -0.3090
vn -0.1651 0.9366 -0.3090
vn -0.1651 0.9366 -0.3090
vn -0.1651 0.9366 -0.3090
vn 0.8758 0.1678 0.4526
vn 0.8758 0.1678 0.4526
vn 0.2934 0.2359 0.9264
vn 0.2934 0.2359 0.9264
vn -0.3564 0.1213 0.9264
vn -0.3564 0.1213 0.9264
vn -0.8804 -0.1419 0.4526
vn -0.8804 -0.1419 0.4526
vn -0.8337 -0.4064 -0.3739
vn -0.8337 -0.4064 -0.3739
vn -0.2559 -0.4491 -0.8561
vn -0.2559 -0.4491 -0.8561
vn 0.3940 -0.3345 -0.8561
vn 0.3940 -0.3345 -0.8561
vn 0.9224 -0.0967 -0.3739
vn 0.9224 -0.0967 -0.3739
vn -0.9760 0.0531 -0.2110
vn -0.9760 0.0531 -0.2110
vn -0.8080 0.0518 -0.5869
vn -0.8080 0.0518 -0.5869
vn -0.5230 0.0502 -0.8508
vn -0.5230 0.0502 -0.8508
vn -0.1798 0.0491 -0.9825
vn -0.1798 0.0491 -0.9825
vn 0.1798 0.0491 -0.9825
vn 0.1798 0.0491 -0.9825
vn 0.5230 0.0502 -0.8508
vn 0.5230 0.0502 -0.8508
vn 0.8080 0.0518 -0.5869
vn 0.8080 0.0518 -0.5869
vn 0.9760 0.0531 -0.2110
vn 0.9760 0.0531 -0.2110
vn 0.9760 0.0531 0.2110
vn 0.9760 0.0531 0.2110
vn -0.9760 0.0531 0.2110
vn -0.9760 0.0531 0.2110
vn -0.8758 -0.1678 -0.4526
vn -0.8758 -0.1678 -0.4526
vn -0.2934 -0.2359 -0.9264
vn -0.2934 -0.2359 -0.9264
vn 0.3564 -0.1213 -0.9264
vn 0.3564 -0.1213 -0.9264
vn 0.8804 0.1419 -0.4526
vn 0.8804 0.1419 -0.4526
vn 0.8337 0.4064 0.3739
vn 0.8337 0.4064 0.3739
vn 0.2559 0.4491 0.8561
vn 0.2559 0.4491 0.8561
vn -0.3940 0.3345 0.8561
vn -0.3940 0.3345 0.8561
vn -0.9224 0.0967 0.3739
vn -0.9224 0.0967 0.3739
usemtl Mat_Gum_tomato
f 2//1 3//1 1//1
f 3//2 4//2 1//2
f 4//3 5//3 1//3
f 5//4 6//4 1//4
f 6//5 7//5 1//5
f 7//6 8//6 1//6
f 8//7 9//7 1//7
f 9//8 10//8 1//8
f 10//9 11//9 1//9
f 11//10 12//10 1//10
f 12//11 13//11 1//11
f 13//12 14//12 1//12
f 14//13 15//13 1//13
f 15//14 16//14 1//14
f 16//15 17//15 1//15
f 17//16 2//16 1//16
f 18//17 19//17 3//17
f 18//18 3//18 2//18
f 19//19 20//19 4//19
f 19//20 4//20 3//20
f 20//21 21//21 5//21
f 20//22 5//22 4//22
f 21//23 22//23 6//23
f 21//24 6//24 5//24
f 22//25 23//25 7//25
f 22//26 7//26 6//26
f 23//27 24//27 8//27
f 23//28 8//28 7//28
f 24//29 25//29 9//29
f 24//30 9//30 8//30
f 25//31 26//31 10//31
f 25//32 10//32 9//32
f 26//33 27//33 11//33
f 26//34 11//34 10//34
f 27//35 28//35 12//35
f 27//36 12//36 11//36
f 28//37 29//37 13//37
f 28//38 13//38 12//38
f 29//39 30//39 14//39
f 29//40 14//40 13//40
f 30//41 31//41 15//41
f 30//42 15//42 14//42
f 31//43 32//43 16//43
f 31//44 16//44 15//44
f 32//45 33//45 17//45
f 32//46 17//46 16//46
f 33//47 18//47 2//47
f 33//48 2//48 17//48
f 34//49 35//49 19//49
f 34//50 19//50 18//50
f 35//51 36//51 20//51
f 35//52 20//52 19//52
f 36//53 37//53 21//53
f 36//54 21//54 20//54
f 37//55 38//55 22//55
f 37//56 22//56 21//56
f 38//57 39//57 23//57
f 38//58 23//58 22//58
f 39//59 40//59 24//59
f 39//60 24//60 23//60
f 40//61 41//61 25//61
f 40//62 25//62 24//62
f 41//63 42//63 26//63
f 41//64 26//64 25//64
f 42//65 43//65 27//65
f 42//66 27//66 26//66
f 43//67 44//67 28//67
f 43//68 28//68 27//68
f 44//69 45//69 29//69
f 44//70 29//70 28//70
f 45//71 46//71 30//71
f 45//72 30//72 29//72
f 46//73 47//73 31//73
f 46//74 31//74 30//74
f 47//75 48//75 32//75
f 47//76 32//76 31//76
f 48//77 49//77 33//77
f 48//78 33//78 32//78
f 49//79 34//79 18//79
f 49//80 18//80 33//80
f 50//81 51//81 35//81
f 50//82 35//82 34//82
f 51//83 52//83 36//83
f 51//84 36//84 35//84
f 52//85 53//85 37//85
f 52//86 37//86 36//86
f 53//87 54//87 38//87
f 53//88 38//88 37//88
f 54//89 55//89 39//89
f 54//90 39//90 38//90
f 55//91 56//91 40//91
f 55//92 40//92 39//92
f 56//93 57//93 41//93
f 56//94 41//94 40//94
f 57//95 58//95 42//95
f 57//96 42//96 41//96
f 58//97 59//97 43//97
f 58//98 43//98 42//98
f 59//99 60//99 44//99
f 59//100 44//100 43//100
f 60//101 61//101 45//101
f 60//102 45//102 44//102
f 61//103 62//103 46//103
f 61//104 46//104 45//104
f 62//105 63//105 47//105
f 62//106 47//106 46//106
f 63//107 64//107 48//107
f 63//108 48//108 47//108
f 64//109 65//109 49//109
f 64//110 49//110 48//110
f 65//111 50//111 34//111
f 65//112 34//112 49//112
f 66//113 67//113 51//113
f 66//114 51//114 50//114
f 67//115 68//115 52//115
f 67//116 52//116 51//116
f 68//117 69//117 53//117
f 68//118 53//118 52//118
f 69//119 70//119 54//119
f 69//120 54//120 53//120
f 70//121 71//121 55//121
f 70//122 55//122 54//122
f 71//123 72//123 56//123
f 71//124 56//124 55//124
f 72//125 73//125 57//125
f 72//126 57//126 56//126
f 73//127 74//127 58//127
f 73//128 58//128 57//128
f 74//129 75//129 59//129
f 74//130 59//130 58//130
f 75//131 76//131 60//131
f 75//132 60//132 59//132
f 76//133 77//133 61//133
f 76//134 61//134 60//134
f 77//135 78//135 62//135
f 77//136 62//136 61//136
f 78//137 79//137 63//137
f 78//138 63//138 62//138
f 79//139 80//139 64//139
f 79//140 64//140 63//140
f 80//141 81//141 65//141
f 80//142 65//142 64//142
f 81//143 66//143 50//143
f 81//144 50//144 65//144
f 82//145 83//145 67//145
f 82//146 67//146 66//146
f 83//147 84//147 68//147
f 83//148 68//148 67//148
f 84//149 85//149 69//149
f 84//150 69//150 68//150
f 85//151 86//151 70//151
f 85//152 70//152 69//152
f 86//153 87//153 71//153
f 86//154 71//154 70//154
f 87//155 88//155 72//155
f 87//156 72//156 71//156
f 88//157 89//157 73//157
f 88//158 73//158 72//158
f 89//159 90//159 74//159
f 89//160 74//160 73//160
f 90//161 91//161 75//161
f 90//162 75//162 74//162
f 91//163 92//163 76//163
f 91//164 76//164 75//164
f 92//165 93//165 77//165
f 92//166 77//166 76//166
f 93//167 94//167 78//167
f 93//168 78//168 77//168
f 94//169 95//169 79//169
f 94//170 79//170 78//170
f 95//171 96//171 80//171
f 95//172 80//172 79//172
f 96//173 97//173 81//173
f 96//174 81//174 80//174
f 97//175 82//175 66//175
f 97//176 66//176 81//176
f 98//177 83//177 82//177
f 98//178 84//178 83//178
f 98//179 85//179 84//179
f 98//180 86//180 85//180
f 98//181 87//181 86//181
f 98//182 88//182 87//182
f 98//183 89//183 88//183
f 98//184 90//184 89//184
f 98//185 91//185 90//185
f 98//186 92//186 91//186
f 98//187 93//187 92//187
f 98//188 94//188 93//188
f 98//189 95//189 94//189
f 98//190 96//190 95//190
f 98//191 97//191 96//191
f 98//192 82//192 97//192
usemtl Mat_Gum_tomatoL
f 100//193 101//193 99//193
f 101//194 102//194 99//194
f 102//195 103//195 99//195
f 103//196 104//196 99//196
f 104//197 105//197 99//197
f 105//198 106//198 99//198
f 106//199 107//199 99//199
f 107//200 108//200 99//200
f 108//201 109//201 99//201
f 109//202 110//202 99//202
f 110//203 111//203 99//203
f 111//204 100//204 99//204
f 112//205 113//205 101//205
f 112//206 101//206 100//206
f 113//207 114//207 102//207
f 113//208 102//208 101//208
f 114//209 115//209 103//209
f 114//210 103//210 102//210
f 115//211 116//211 104//211
f 115//212 104//212 103//212
f 116//213 117//213 105//213
f 116//214 105//214 104//214
f 117//215 118//215 106//215
f 117//216 106//216 105//216
f 118//217 119//217 107//217
f 118//218 107//218 106//218
f 119//219 120//219 108//219
f 119//220 108//220 107//220
f 120//221 121//221 109//221
f 120//222 109//222 108//222
f 121//223 122//223 110//223
f 121//224 110//224 109//224
f 122//225 123//225 111//225
f 122//226 111//226 110//226
f 123//227 112//227 100//227
f 123//228 100//228 111//228
f 124//229 125//229 113//229
f 124//230 113//230 112//230
f 125//231 126//231 114//231
f 125//232 114//232 113//232
f 126//233 127//233 115//233
f 126//234 115//234 114//234
f 127//235 128//235 116//235
f 127//236 116//236 115//236
f 128//237 129//237 117//237
f 128//238 117//238 116//238
f 129//239 130//239 118//239
f 129//240 118//240 117//240
f 130//241 131//241 119//241
f 130//242 119//242 118//242
f 131//243 132//243 120//243
f 131//244 120//244 119//244
f 132//245 133//245 121//245
f 132//246 121//246 120//246
f 133//247 134//247 122//247
f 133//248 122//248 121//248
f 134//249 135//249 123//249
f 134//250 123//250 122//250
f 135//251 124//251 112//251
f 135//252 112//252 123//252
f 136//253 125//253 124//253
f 136//254 126//254 125//254
f 136//255 127//255 126//255
f 136//256 128//256 127//256
f 136//257 129//257 128//257
f 136//258 130//258 129//258
f 136//259 131//259 130//259
f 136//260 132//260 131//260
f 136//261 133//261 132//261
f 136//262 134//262 133//262
f 136//263 135//263 134//263
f 136//264 124//264 135//264
usemtl Mat_HeroYellow
f 148//265 149//265 138//265
f 148//266 138//266 137//266
f 149//267 150//267 139//267
f 149//268 139//268 138//268
f 150//269 151//269 140//269
f 150//270 140//270 139//270
f 151//271 152//271 141//271
f 151//272 141//272 140//272
f 152//273 153//273 142//273
f 152//274 142//274 141//274
f 153//275 154//275 143//275
f 153//276 143//276 142//276
f 154//277 155//277 144//277
f 154//278 144//278 143//278
f 155//279 156//279 145//279
f 155//280 145//280 144//280
f 156//281 157//281 146//281
f 156//282 146//282 145//282
f 158//283 148//283 137//283
f 158//284 137//284 147//284
f 163//285 160//285 159//285
f 163//286 161//286 160//286
f 163//287 162//287 161//287
f 163//288 159//288 162//288
f 159//289 160//289 161//289
f 159//290 161//290 162//290
usemtl Mat_FadedWood
f 165//291 166//291 164//291
f 166//292 167//292 164//292
f 167//293 168//293 164//293
f 168//294 169//294 164//294
f 169//295 170//295 164//295
f 170//296 171//296 164//296
f 171//297 172//297 164//297
f 172//298 165//298 164//298
f 173//299 174//299 166//299
f 173//300 166//300 165//300
f 174//301 175//301 167//301
f 174//302 167//302 166//302
f 175//303 176//303 168//303
f 175//304 168//304 167//304
f 176//305 177//305 169//305
f 176//306 169//306 168//306
f 177//307 178//307 170//307
f 177//308 170//308 169//308
f 178//309 179//309 171//309
f 178//310 171//310 170//310
f 179//311 180//311 172//311
f 179//312 172//312 171//312
f 180//313 173//313 165//313
f 180//314 165//314 172//314
f 181//315 174//315 173//315
f 181//316 175//316 174//316
f 181//317 176//317 175//317
f 181//318 177//318 176//318
f 181//319 178//319 177//319
f 181//320 179//320 178//320
f 181//321 180//321 179//321
f 181//322 173//322 180//322
f 183//323 184//323 182//323
f 184//324 185//324 182//324
f 185//325 186//325 182//325
f 186//326 187//326 182//326
f 187//327 188//327 182//327
f 188//328 189//328 182//328
f 189//329 190//329 182//329
f 190//330 183//330 182//330
f 191//331 192//331 184//331
f 191//332 184//332 183//332
f 192//333 193//333 185//333
f 192//334 185//334 184//334
f 193//335 194//335 186//335
f 193//336 186//336 185//336
f 194//337 195//337 187//337
f 194//338 187//338 186//338
f 195//339 196//339 188//339
f 195//340 188//340 187//340
f 196//341 197//341 189//341
f 196//342 189//342 188//342
f 197//343 198//343 190//343
f 197//344 190//344 189//344
f 198//345 191//345 183//345
f 198//346 183//346 190//346
f 199//347 200//347 192//347
f 199//348 192//348 191//348
f 200//349 201//349 193//349
f 200//350 193//350 192//350
f 201//351 202//351 194//351
f 201//352 194//352 193//352
f 202//353 203//353 195//353
f 202//354 195//354 194//354
f 203//355 204//355 196//355
f 203//356 196//356 195//356
f 204//357 205//357 197//357
f 204//358 197//358 196//358
f 205//359 206//359 198//359
f 205//360 198//360 197//360
f 206//361 199//361 191//361
f 206//362 191//362 198//362
f 207//363 208//363 200//363
f 207//364 200//364 199//364
f 208//365 209//365 201//365
f 208//366 201//366 200//366
f 209//367 210//367 202//367
f 209//368 202//368 201//368
f 210//369 211//369 203//369
f 210//370 203//370 202//370
f 211//371 212//371 204//371
f 211//372 204//372 203//372
f 212//373 213//373 205//373
f 212//374 205//374 204//374
f 213//375 214//375 206//375
f 213//376 206//376 205//376
f 214//377 207//377 199//377
f 214//378 199//378 206//378
f 215//379 208//379 207//379
f 215//380 209//380 208//380
f 215//381 210//381 209//381
f 215//382 211//382 210//382
f 215//383 212//383 211//383
f 215//384 213//384 212//384
f 215//385 214//385 213//385
f 215//386 207//386 214//386
usemtl Mat_HeroRed
f 224//387 225//387 217//387
f 224//388 217//388 216//388
f 225//389 226//389 218//389
f 225//390 218//390 217//390
f 226//391 227//391 219//391
f 226//392 219//392 218//392
f 227//393 228//393 220//393
f 227//394 220//394 219//394
f 228//395 229//395 221//395
f 228//396 221//396 220//396
f 229//397 230//397 222//397
f 229//398 222//398 221//398
f 230//399 231//399 223//399
f 230//400 223//400 222//400
f 231//401 224//401 216//401
f 231//402 216//402 223//402
usemtl Mat_HeroYellow
f 138//403 149//403 148//403
f 137//404 138//404 148//404
f 139//405 150//405 149//405
f 138//406 139//406 149//406
f 140//407 151//407 150//407
f 139//408 140//408 150//408
f 141//409 152//409 151//409
f 140//410 141//410 151//410
f 142//411 153//411 152//411
f 141//412 142//412 152//412
f 143//413 154//413 153//413
f 142//414 143//414 153//414
f 144//415 155//415 154//415
f 143//416 144//416 154//416
f 145//417 156//417 155//417
f 144//418 145//418 155//418
f 146//419 157//419 156//419
f 145//420 146//420 156//420
f 137//421 148//421 158//421
f 147//422 137//422 158//422
usemtl Mat_HeroRed
f 217//423 225//423 224//423
f 216//424 217//424 224//424
f 218//425 226//425 225//425
f 217//426 218//426 225//426
f 219//427 227//427 226//427
f 218//428 219//428 226//428
f 220//429 228//429 227//429
f 219//430 220//430 227//430
f 221//431 229//431 228//431
f 220//432 221//432 228//432
f 222//433 230//433 229//433
f 221//434 222//434 229//434
f 223//435 231//435 230//435
f 222//436 223//436 230//436
f 216//437 224//437 231//437
f 223//438 216//438 231//438
o Char_Native_Kid_Head
v 0.00000 0.46530 0.35539
v 0.08153 0.48656 0.35037
v 0.06596 0.49756 0.39702
v 0.02519 0.50436 0.42584
v -0.02519 0.50436 0.42584
v -0.06596 0.49756 0.39702
v -0.08153 0.48656 0.35037
v -0.06596 0.47556 0.30373
v -0.02519 0.46876 0.27491
v 0.02519 0.46876 0.27491
v 0.06596 0.47556 0.30373
v 0.14121 0.54465 0.33667
v 0.11424 0.56371 0.41746
v 0.04364 0.57548 0.46738
v -0.04364 0.57548 0.46738
v -0.11424 0.56371 0.41746
v -0.14121 0.54465 0.33667
v -0.11424 0.52559 0.25589
v -0.04364 0.51381 0.20596
v 0.04364 0.51381 0.20596
v 0.11424 0.52559 0.25589
v 0.16306 0.62400 0.31795
v 0.13192 0.64601 0.41123
v 0.05039 0.65961 0.46889
v -0.05039 0.65961 0.46889
v -0.13192 0.64601 0.41123
v -0.16306 0.62400 0.31795
v -0.13192 0.60199 0.22467
v -0.05039 0.58839 0.16702
v 0.05039 0.58839 0.16702
v 0.13192 0.60199 0.22467
v 0.14121 0.70335 0.29923
v 0.11424 0.72241 0.38002
v 0.04364 0.73419 0.42995
v -0.04364 0.73419 0.42995
v -0.11424 0.72241 0.38002
v -0.14121 0.70335 0.29923
v -0.11424 0.68429 0.21845
v -0.04364 0.67252 0.16852
v 0.04364 0.67252 0.16852
v 0.11424 0.68429 0.21845
v 0.08153 0.76144 0.28553
v 0.06596 0.77244 0.33217
v 0.02519 0.77924 0.36100
v -0.02519 0.77924 0.36100
v -0.06596 0.77244 0.33217
v -0.08153 0.76144 0.28553
v -0.06596 0.75044 0.23889
v -0.02519 0.74364 0.21006
v 0.02519 0.74364 0.21006
v 0.06596 0.75044 0.23889
v 0.00000 0.78270 0.28051
v 0.10110 0.65527 0.46471
v 0.08179 0.59743 0.47835
v 0.03124 0.56169 0.48678
v -0.03124 0.56169 0.48678
v -0.08179 0.59743 0.47835
v -0.10110 0.65527 0.46471
v -0.08179 0.71310 0.45106
v -0.03124 0.74885 0.44263
v 0.03124 0.74885 0.44263
v 0.08179 0.71310 0.45106
v 0.10110 0.65986 0.48417
v 0.08179 0.60202 0.49782
v 0.03124 0.56628 0.50625
v -0.03124 0.56628 0.50625
v -0.08179 0.60202 0.49782
v -0.10110 0.65986 0.48417
v -0.08179 0.71770 0.47053
v -0.03124 0.75344 0.46210
v 0.03124 0.75344 0.46210
v 0.08179 0.71770 0.47053
v 0.06848 0.69924 0.45936
v 0.05218 0.67175 0.46584
v 0.01957 0.67175 0.46584
v 0.00326 0.69924 0.45936
v 0.01957 0.72673 0.45288
v 0.05218 0.72673 0.45288
v 0.06848 0.70498 0.48369
v 0.05218 0.67749 0.49018
v 0.01957 0.67749 0.49018
v 0.00326 0.70498 0.48369
v 0.01957 0.73247 0.47721
v 0.05218 0.73247 0.47721
v -0.00978 0.62783 0.47621
v -0.01992 0.61424 0.47941
v -0.03633 0.61943 0.47819
v -0.03633 0.63622 0.47423
v -0.01992 0.64141 0.47300
v -0.00978 0.63357 0.50054
v -0.01992 0.61998 0.50374
v -0.03633 0.62517 0.50252
v -0.03633 0.64196 0.49856
v -0.01992 0.64715 0.49733
v -0.21886 0.48320 0.29431
v -0.18594 0.49931 0.31502
v -0.19924 0.49931 0.31478
v -0.22403 0.49931 0.30254
v -0.24579 0.49931 0.28548
v -0.25177 0.49931 0.27359
v -0.23847 0.49931 0.27384
v -0.21368 0.49931 0.28608
v -0.19192 0.49931 0.30314
v -0.17231 0.53820 0.32361
v -0.19112 0.53820 0.32325
v -0.22618 0.53820 0.30594
v -0.25695 0.53820 0.28182
v -0.26540 0.53820 0.26501
v -0.24659 0.53820 0.26536
v -0.21153 0.53820 0.28267
v -0.18076 0.53820 0.30680
v -0.18594 0.57709 0.31502
v -0.19924 0.57709 0.31478
v -0.22403 0.57709 0.30254
v -0.24579 0.57709 0.28548
v -0.25177 0.57709 0.27359
v -0.23847 0.57709 0.27384
v -0.21368 0.57709 0.28608
v -0.19192 0.57709 0.30314
v -0.21886 0.59320 0.29431
v -0.18343 0.56520 0.30890
v -0.17143 0.57720 0.30890
v -0.18343 0.57720 0.32090
v -0.19543 0.57720 0.30890
v -0.18343 0.57720 0.29690
v -0.18343 0.58920 0.30890
v -0.21389 0.53520 0.30035
v -0.20189 0.54720 0.30035
v -0.21389 0.54720 0.31235
v -0.22589 0.54720 0.30035
v -0.21389 0.54720 0.28835
v -0.21389 0.55920 0.30035
v -0.23458 0.56520 0.27807
v -0.22258 0.57720 0.27807
v -0.23458 0.57720 0.29007
v -0.24658 0.57720 0.27807
v -0.23458 0.57720 0.26607
v -0.23458 0.58920 0.27807
v 0.21886 0.48320 0.29431
v 0.25177 0.49931 0.27359
v 0.24579 0.49931 0.28548
v 0.22403 0.49931 0.30254
v 0.19924 0.49931 0.31478
v 0.18594 0.49931 0.31502
v 0.19192 0.49931 0.30314
v 0.21368 0.49931 0.28608
v 0.23847 0.49931 0.27384
v 0.26540 0.53820 0.26501
v 0.25695 0.53820 0.28182
v 0.22618 0.53820 0.30594
v 0.19112 0.53820 0.32325
v 0.17231 0.53820 0.32361
v 0.18076 0.53820 0.30680
v 0.21153 0.53820 0.28267
v 0.24659 0.53820 0.26536
v 0.25177 0.57709 0.27359
v 0.24579 0.57709 0.28548
v 0.22403 0.57709 0.30254
v 0.19924 0.57709 0.31478
v 0.18594 0.57709 0.31502
v 0.19192 0.57709 0.30314
v 0.21368 0.57709 0.28608
v 0.23847 0.57709 0.27384
v 0.21886 0.59320 0.29431
v 0.18343 0.56520 0.30890
v 0.19543 0.57720 0.30890
v 0.18343 0.57720 0.32090
v 0.17143 0.57720 0.30890
v 0.18343 0.57720 0.29690
v 0.18343 0.58920 0.30890
v 0.21389 0.53520 0.30035
v 0.22589 0.54720 0.30035
v 0.21389 0.54720 0.31235
v 0.20189 0.54720 0.30035
v 0.21389 0.54720 0.28835
v 0.21389 0.55920 0.30035
v 0.23458 0.56520 0.27807
v 0.24658 0.57720 0.27807
v 0.23458 0.57720 0.29007
v 0.22258 0.57720 0.27807
v 0.23458 0.57720 0.26607
v 0.23458 0.58920 0.27807
v -0.09579 0.52277 0.34831
v -0.09960 0.52277 0.36484
v -0.10199 0.50598 0.36429
v -0.09818 0.50598 0.34776
v -0.06402 0.51802 0.35563
v -0.06706 0.51791 0.37235
v -0.06902 0.50105 0.37189
v -0.06597 0.50116 0.35518
v -0.03219 0.51506 0.35986
v -0.03364 0.51480 0.37679
v -0.03466 0.49785 0.37646
v -0.03321 0.49812 0.35954
v -0.00000 0.51404 0.36105
v 0.00000 0.51373 0.37803
v 0.00000 0.49676 0.37774
v 0.00000 0.49707 0.36076
v 0.03219 0.51506 0.35986
v 0.03364 0.51480 0.37679
v 0.03466 0.49785 0.37646
v 0.03321 0.49812 0.35954
v 0.06402 0.51802 0.35563
v 0.06706 0.51791 0.37235
v 0.06902 0.50105 0.37189
v 0.06597 0.50116 0.35518
v 0.09579 0.52277 0.34831
v 0.09960 0.52277 0.36484
v 0.10199 0.50598 0.36429
v 0.09818 0.50598 0.34776
v -0.09154 0.86871 0.00954
v -0.09703 0.87030 -0.01568
v -0.12099 0.86125 -0.01923
v -0.13032 0.85406 0.00379
v -0.11212 0.85868 0.02158
v -0.17544 1.06876 0.03798
v -0.17893 1.06757 0.01697
v -0.19828 1.05951 0.01397
v -0.20674 1.05572 0.03312
v -0.19262 1.06143 0.04796
v -0.24835 1.22869 0.01653
v -0.25036 1.22565 -0.00072
v -0.26625 1.21840 -0.00316
v -0.27405 1.21695 0.01259
v -0.26299 1.22331 0.02476
v -0.26040 1.17760 0.01000
v -0.22858 1.19078 0.01000
v -0.23790 1.19078 0.03250
v -0.26040 1.19078 0.04182
v -0.28290 1.19078 0.03250
v -0.29222 1.19078 0.01000
v -0.28290 1.19078 -0.01250
v -0.26040 1.19078 -0.02182
v -0.23790 1.19078 -0.01250
v -0.21540 1.22260 0.01000
v -0.22858 1.22260 0.04182
v -0.26040 1.22260 0.05500
v -0.29222 1.22260 0.04182
v -0.30540 1.22260 0.01000
v -0.29222 1.22260 -0.02182
v -0.26040 1.22260 -0.03500
v -0.22858 1.22260 -0.02182
v -0.22858 1.25442 0.01000
v -0.23790 1.25442 0.03250
v -0.26040 1.25442 0.04182
v -0.28290 1.25442 0.03250
v -0.29222 1.25442 0.01000
v -0.28290 1.25442 -0.01250
v -0.26040 1.25442 -0.02182
v -0.23790 1.25442 -0.01250
v -0.26040 1.26760 0.01000
v 0.10247 0.86871 -0.01959
v 0.09001 0.87030 0.00302
v 0.10573 0.86125 0.02146
v 0.12790 0.85406 0.01024
v 0.12588 0.85868 -0.01513
v 0.18320 1.06583 0.01371
v 0.17394 1.06946 0.03256
v 0.18743 1.06361 0.04787
v 0.20502 1.05637 0.03849
v 0.20241 1.05774 0.01737
v 0.25376 1.22383 -0.00339
v 0.24689 1.22877 0.01207
v 0.25869 1.22518 0.02468
v 0.27285 1.21803 0.01700
v 0.26981 1.21719 -0.00035
v 0.26040 1.17760 0.01000
v 0.29222 1.19078 0.01000
v 0.28290 1.19078 0.03250
v 0.26040 1.19078 0.04182
v 0.23790 1.19078 0.03250
v 0.22858 1.19078 0.01000
v 0.23790 1.19078 -0.01250
v 0.26040 1.19078 -0.02182
v 0.28290 1.19078 -0.01250
v 0.30540 1.22260 0.01000
v 0.29222 1.22260 0.04182
v 0.26040 1.22260 0.05500
v 0.22858 1.22260 0.04182
v 0.21540 1.22260 0.01000
v 0.22858 1.22260 -0.02182
v 0.26040 1.22260 -0.03500
v 0.29222 1.22260 -0.02182
v 0.29222 1.25442 0.01000
v 0.28290 1.25442 0.03250
v 0.26040 1.25442 0.04182
v 0.23790 1.25442 0.03250
v 0.22858 1.25442 0.01000
v 0.23790 1.25442 -0.01250
v 0.26040 1.25442 -0.02182
v 0.28290 1.25442 -0.01250
v 0.26040 1.26760 0.01000
vn 0.2579 -0.9176 0.3026
vn 0.1594 -0.8864 0.4345
vn 0.0000 -0.8746 0.4849
vn -0.1594 -0.8864 0.4345
vn -0.2579 -0.9176 0.3026
vn -0.2579 -0.9561 0.1394
vn -0.1594 -0.9872 0.0075
vn 0.0000 -0.9991 -0.0429
vn 0.1594 -0.9872 0.0075
vn 0.2579 -0.9561 0.1394
vn 0.6892 -0.6193 0.3762
vn 0.6892 -0.6193 0.3762
vn 0.4259 -0.5361 0.7288
vn 0.4259 -0.5361 0.7288
vn 0.0000 -0.5044 0.8635
vn 0.0000 -0.5044 0.8635
vn -0.4259 -0.5361 0.7288
vn -0.4259 -0.5361 0.7288
vn -0.6892 -0.6193 0.3762
vn -0.6892 -0.6193 0.3762
vn -0.6892 -0.7222 -0.0597
vn -0.6892 -0.7222 -0.0597
vn -0.4259 -0.8053 -0.4123
vn -0.4259 -0.8053 -0.4123
vn 0.0000 -0.8371 -0.5470
vn 0.0000 -0.8371 -0.5470
vn 0.4259 -0.8053 -0.4123
vn 0.4259 -0.8053 -0.4123
vn 0.6892 -0.7222 -0.0597
vn 0.6892 -0.7222 -0.0597
vn 0.9216 -0.1716 0.3481
vn 0.9216 -0.1716 0.3481
vn 0.5696 -0.0604 0.8197
vn 0.5696 -0.0604 0.8197
vn 0.0000 -0.0179 0.9998
vn 0.0000 -0.0179 0.9998
vn -0.5696 -0.0604 0.8197
vn -0.5696 -0.0604 0.8197
vn -0.9216 -0.1716 0.3481
vn -0.9216 -0.1716 0.3481
vn -0.9216 -0.3091 -0.2348
vn -0.9216 -0.3091 -0.2348
vn -0.5696 -0.4203 -0.7063
vn -0.5696 -0.4203 -0.7063
vn 0.0000 -0.4628 -0.8864
vn 0.0000 -0.4628 -0.8864
vn 0.5696 -0.4203 -0.7063
vn 0.5696 -0.4203 -0.7063
vn 0.9216 -0.3091 -0.2348
vn 0.9216 -0.3091 -0.2348
vn 0.9216 0.3091 0.2348
vn 0.9216 0.3091 0.2348
vn 0.5696 0.4203 0.7063
vn 0.5696 0.4203 0.7063
vn 0.0000 0.4628 0.8864
vn 0.0000 0.4628 0.8864
vn -0.5696 0.4203 0.7063
vn -0.5696 0.4203 0.7063
vn -0.9216 0.3091 0.2348
vn -0.9216 0.3091 0.2348
vn -0.9216 0.1716 -0.3481
vn -0.9216 0.1716 -0.3481
vn -0.5696 0.0604 -0.8197
vn -0.5696 0.0604 -0.8197
vn -0.0000 0.0179 -0.9998
vn 0.0000 0.0179 -0.9998
vn 0.5696 0.0604 -0.8197
vn 0.5696 0.0604 -0.8197
vn 0.9216 0.1716 -0.3481
vn 0.9216 0.1716 -0.3481
vn 0.6892 0.7222 0.0597
vn 0.6892 0.7222 0.0597
vn 0.4259 0.8053 0.4123
vn 0.4259 0.8053 0.4123
vn 0.0000 0.8371 0.5470
vn 0.0000 0.8371 0.5470
vn -0.4259 0.8053 0.4123
vn -0.4259 0.8053 0.4123
vn -0.6892 0.7222 0.0597
vn -0.6892 0.7222 0.0597
vn -0.6892 0.6193 -0.3762
vn -0.6892 0.6193 -0.3762
vn -0.4259 0.5361 -0.7288
vn -0.4259 0.5361 -0.7288
vn 0.0000 0.5044 -0.8635
vn -0.0000 0.5044 -0.8635
vn 0.4259 0.5361 -0.7288
vn 0.4259 0.5361 -0.7288
vn 0.6892 0.6193 -0.3762
vn 0.6892 0.6193 -0.3762
vn 0.2579 0.9561 -0.1394
vn 0.1594 0.9872 -0.0075
vn 0.0000 0.9991 0.0429
vn -0.1594 0.9872 -0.0075
vn -0.2579 0.9561 -0.1394
vn -0.2579 0.9176 -0.3026
vn -0.1594 0.8864 -0.4345
vn 0.0000 0.8746 -0.4849
vn 0.1594 0.8864 -0.4345
vn 0.2579 0.9176 -0.3026
vn 0.9511 -0.3008 0.0709
vn 0.9511 -0.3008 0.0709
vn 0.5878 -0.7874 0.1857
vn 0.5878 -0.7874 0.1857
vn 0.0000 -0.9733 0.2296
vn 0.0000 -0.9733 0.2296
vn -0.5878 -0.7874 0.1857
vn -0.5878 -0.7874 0.1857
vn -0.9511 -0.3008 0.0709
vn -0.9511 -0.3008 0.0709
vn -0.9511 0.3008 -0.0709
vn -0.9511 0.3008 -0.0709
vn -0.5878 0.7874 -0.1857
vn -0.5878 0.7874 -0.1857
vn -0.0000 0.9733 -0.2296
vn 0.0000 0.9733 -0.2296
vn 0.5878 0.7874 -0.1857
vn 0.5878 0.7874 -0.1857
vn 0.9511 0.3008 -0.0709
vn 0.9511 0.3008 -0.0709
vn -0.0000 0.2296 0.9733
vn 0.0000 0.2296 0.9733
vn 0.0000 0.2296 0.9733
vn 0.0000 0.2296 0.9733
vn -0.0000 0.2296 0.9733
vn 0.0000 0.2296 0.9733
vn 0.0000 0.2296 0.9733
vn -0.0000 0.2296 0.9733
vn 0.8660 -0.4866 0.1148
vn 0.8660 -0.4866 0.1148
vn 0.0000 -0.9733 0.2296
vn 0.0000 -0.9733 0.2296
vn -0.8660 -0.4866 0.1148
vn -0.8660 -0.4866 0.1148
vn -0.8660 0.4866 -0.1148
vn -0.8660 0.4866 -0.1148
vn 0.0000 0.9733 -0.2296
vn -0.0000 0.9733 -0.2296
vn 0.8660 0.4866 -0.1148
vn 0.8660 0.4866 -0.1148
vn 0.0000 0.2296 0.9733
vn 0.0000 0.2296 0.9733
vn 0.0000 0.2296 0.9733
vn 0.0000 0.2296 0.9733
vn 0.8090 -0.5721 0.1350
vn 0.8090 -0.5721 0.1350
vn -0.3090 -0.9257 0.2184
vn -0.3090 -0.9257 0.2184
vn -1.0000 0.0000 0.0000
vn -1.0000 0.0000 -0.0000
vn -0.3090 0.9257 -0.2184
vn -0.3090 0.9257 -0.2184
vn 0.8090 0.5721 -0.1350
vn 0.8090 0.5721 -0.1350
vn 0.0000 0.2296 0.9733
vn -0.0000 0.2296 0.9733
vn 0.0000 0.2296 0.9733
vn -0.0117 -0.7803 0.6253
vn -0.3795 -0.5147 0.7688
vn -0.5290 -0.5147 0.6747
vn -0.5588 -0.7803 0.2810
vn 0.0117 -0.7803 -0.6253
vn 0.3795 -0.5147 -0.7688
vn 0.5290 -0.5147 -0.6747
vn 0.5588 -0.7803 -0.2810
vn -0.0183 -0.2093 0.9777
vn -0.0183 -0.2093 0.9777
vn -0.4403 -0.1025 0.8920
vn -0.4403 -0.1025 0.8920
vn -0.6138 -0.1025 0.7828
vn -0.6138 -0.1025 0.7828
vn -0.8736 -0.2093 0.4394
vn -0.8736 -0.2093 0.4394
vn 0.0183 -0.2093 -0.9777
vn 0.0183 -0.2093 -0.9777
vn 0.4403 -0.1025 -0.8920
vn 0.4403 -0.1025 -0.8920
vn 0.6138 -0.1025 -0.7828
vn 0.6138 -0.1025 -0.7828
vn 0.8736 -0.2093 -0.4394
vn 0.8736 -0.2093 -0.4394
vn -0.0183 0.2093 0.9777
vn -0.0183 0.2093 0.9777
vn -0.4403 0.1025 0.8920
vn -0.4403 0.1025 0.8920
vn -0.6138 0.1025 0.7828
vn -0.6138 0.1025 0.7828
vn -0.8736 0.2093 0.4394
vn -0.8736 0.2093 0.4394
vn 0.0183 0.2093 -0.9777
vn 0.0183 0.2093 -0.9777
vn 0.4403 0.1025 -0.8920
vn 0.4403 0.1025 -0.8920
vn 0.6138 0.1025 -0.7828
vn 0.6138 0.1025 -0.7828
vn 0.8736 0.2093 -0.4394
vn 0.8736 0.2093 -0.4394
vn -0.0117 0.7803 0.6253
vn -0.3795 0.5147 0.7688
vn -0.5290 0.5147 0.6747
vn -0.5588 0.7803 0.2810
vn 0.0117 0.7803 -0.6253
vn 0.3795 0.5147 -0.7688
vn 0.5290 0.5147 -0.6747
vn 0.5588 0.7803 -0.2810
vn 0.5774 -0.5774 0.5774
vn -0.5774 -0.5774 0.5774
vn -0.5774 -0.5774 -0.5774
vn 0.5774 -0.5774 -0.5774
vn 0.5774 0.5774 0.5774
vn -0.5774 0.5774 0.5774
vn -0.5774 0.5774 -0.5774
vn 0.5774 0.5774 -0.5774
vn 0.5774 -0.5774 0.5774
vn -0.5774 -0.5774 0.5774
vn -0.5774 -0.5774 -0.5774
vn 0.5774 -0.5774 -0.5774
vn 0.5774 0.5774 0.5774
vn -0.5774 0.5774 0.5774
vn -0.5774 0.5774 -0.5774
vn 0.5774 0.5774 -0.5774
vn 0.5774 -0.5774 0.5774
vn -0.5774 -0.5774 0.5774
vn -0.5774 -0.5774 -0.5774
vn 0.5774 -0.5774 -0.5774
vn 0.5774 0.5774 0.5774
vn -0.5774 0.5774 0.5774
vn -0.5774 0.5774 -0.5774
vn 0.5774 0.5774 -0.5774
vn 0.5588 -0.7803 0.2810
vn 0.5290 -0.5147 0.6747
vn 0.3795 -0.5147 0.7688
vn 0.0117 -0.7803 0.6253
vn -0.5588 -0.7803 -0.2810
vn -0.5290 -0.5147 -0.6747
vn -0.3795 -0.5147 -0.7688
vn -0.0117 -0.7803 -0.6253
vn 0.8736 -0.2093 0.4394
vn 0.8736 -0.2093 0.4394
vn 0.6138 -0.1025 0.7828
vn 0.6138 -0.1025 0.7828
vn 0.4403 -0.1025 0.8920
vn 0.4403 -0.1025 0.8920
vn 0.0183 -0.2093 0.9777
vn 0.0183 -0.2093 0.9777
vn -0.8736 -0.2093 -0.4394
vn -0.8736 -0.2093 -0.4394
vn -0.6138 -0.1025 -0.7828
vn -0.6138 -0.1025 -0.7828
vn -0.4403 -0.1025 -0.8920
vn -0.4403 -0.1025 -0.8920
vn -0.0183 -0.2093 -0.9777
vn -0.0183 -0.2093 -0.9777
vn 0.8736 0.2093 0.4394
vn 0.8736 0.2093 0.4394
vn 0.6138 0.1025 0.7828
vn 0.6138 0.1025 0.7828
vn 0.4403 0.1025 0.8920
vn 0.4403 0.1025 0.8920
vn 0.0183 0.2093 0.9777
vn 0.0183 0.2093 0.9777
vn -0.8736 0.2093 -0.4394
vn -0.8736 0.2093 -0.4394
vn -0.6138 0.1025 -0.7828
vn -0.6138 0.1025 -0.7828
vn -0.4403 0.1025 -0.8920
vn -0.4403 0.1025 -0.8920
vn -0.0183 0.2093 -0.9777
vn -0.0183 0.2093 -0.9777
vn 0.5588 0.7803 0.2810
vn 0.5290 0.5147 0.6747
vn 0.3795 0.5147 0.7688
vn 0.0117 0.7803 0.6253
vn -0.5588 0.7803 -0.2810
vn -0.5290 0.5147 -0.6747
vn -0.3795 0.5147 -0.7688
vn -0.0117 0.7803 -0.6253
vn 0.5774 -0.5774 0.5774
vn -0.5774 -0.5774 0.5774
vn -0.5774 -0.5774 -0.5774
vn 0.5774 -0.5774 -0.5774
vn 0.5774 0.5774 0.5774
vn -0.5774 0.5774 0.5774
vn -0.5774 0.5774 -0.5774
vn 0.5774 0.5774 -0.5774
vn 0.5774 -0.5774 0.5774
vn -0.5774 -0.5774 0.5774
vn -0.5774 -0.5774 -0.5774
vn 0.5774 -0.5774 -0.5774
vn 0.5774 0.5774 0.5774
vn -0.5774 0.5774 0.5774
vn -0.5774 0.5774 -0.5774
vn 0.5774 0.5774 -0.5774
vn 0.5774 -0.5774 0.5774
vn -0.5774 -0.5774 0.5774
vn -0.5774 -0.5774 -0.5774
vn 0.5774 -0.5774 -0.5774
vn 0.5774 0.5774 0.5774
vn -0.5774 0.5774 0.5774
vn -0.5774 0.5774 -0.5774
vn 0.5774 0.5774 -0.5774
vn 0.1405 0.9896 0.0324
vn 0.1405 0.9896 0.0324
vn -0.2246 0.0000 0.9744
vn -0.2246 0.0000 0.9744
vn -0.1405 -0.9896 -0.0324
vn -0.1405 -0.9896 -0.0324
vn 0.2246 0.0000 -0.9744
vn 0.2246 -0.0000 -0.9744
vn 0.0896 0.9957 0.0232
vn 0.0896 0.9957 0.0232
vn -0.1329 -0.0111 0.9911
vn -0.1329 -0.0111 0.9911
vn -0.0896 -0.9957 -0.0232
vn -0.0896 -0.9957 -0.0232
vn 0.1329 0.0111 -0.9911
vn 0.1329 0.0111 -0.9911
vn 0.0309 0.9994 0.0182
vn 0.0309 0.9994 0.0182
vn -0.0374 -0.0170 0.9992
vn -0.0374 -0.0170 0.9992
vn -0.0309 -0.9994 -0.0182
vn -0.0309 -0.9994 -0.0182
vn 0.0374 0.0170 -0.9992
vn 0.0374 0.0170 -0.9992
vn -0.0309 0.9994 0.0182
vn -0.0309 0.9994 0.0182
vn 0.0374 -0.0170 0.9992
vn 0.0374 -0.0170 0.9992
vn 0.0309 -0.9994 -0.0182
vn 0.0309 -0.9994 -0.0182
vn -0.0374 0.0170 -0.9992
vn -0.0374 0.0170 -0.9992
vn -0.0896 0.9957 0.0232
vn -0.0896 0.9957 0.0232
vn 0.1329 -0.0111 0.9911
vn 0.1329 -0.0111 0.9911
vn 0.0896 -0.9957 -0.0232
vn 0.0896 -0.9957 -0.0232
vn -0.1329 0.0111 -0.9911
vn -0.1329 0.0111 -0.9911
vn -0.1405 0.9896 0.0324
vn -0.1405 0.9896 0.0324
vn 0.2246 0.0000 0.9744
vn 0.2246 0.0000 0.9744
vn 0.1405 -0.9896 -0.0324
vn 0.1405 -0.9896 -0.0324
vn -0.2246 -0.0000 -0.9744
vn -0.2246 -0.0000 -0.9744
vn -0.9643 0.1442 -0.2223
vn -0.9643 0.1442 -0.2223
vn 0.9643 0.1442 -0.2223
vn 0.9643 0.1442 -0.2223
vn 0.8998 0.4017 -0.1704
vn 0.8994 0.4017 -0.1722
vn 0.0725 0.1922 -0.9787
vn 0.0721 0.1919 -0.9788
vn -0.8625 -0.2641 -0.4317
vn -0.8620 -0.2635 -0.4331
vn -0.6131 -0.3365 0.7147
vn -0.6142 -0.3366 0.7137
vn 0.4760 0.0751 0.8762
vn 0.4766 0.0752 0.8759
vn 0.9047 0.3895 -0.1724
vn 0.9046 0.3891 -0.1741
vn 0.1674 -0.0346 -0.9853
vn 0.1670 -0.0348 -0.9853
vn -0.8096 -0.3935 -0.4357
vn -0.8090 -0.3932 -0.4370
vn -0.6737 -0.1905 0.7140
vn -0.6746 -0.1908 0.7131
vn 0.3839 0.2925 0.8758
vn 0.3844 0.2926 0.8755
vn 0.3678 -0.9196 -0.1379
vn 0.3678 -0.9196 -0.1379
vn 0.3678 -0.9196 -0.1379
vn -0.3982 0.9102 -0.1138
vn -0.3982 0.9102 -0.1138
vn -0.3982 0.9102 -0.1138
vn 0.3780 -0.9125 0.1566
vn 0.1566 -0.9125 0.3780
vn -0.1566 -0.9125 0.3780
vn -0.3780 -0.9125 0.1566
vn -0.3780 -0.9125 -0.1566
vn -0.1566 -0.9125 -0.3780
vn 0.1566 -0.9125 -0.3780
vn 0.3780 -0.9125 -0.1566
vn 0.8629 -0.3574 0.3574
vn 0.8629 -0.3574 0.3574
vn 0.3574 -0.3574 0.8629
vn 0.3574 -0.3574 0.8629
vn -0.3574 -0.3574 0.8629
vn -0.3574 -0.3574 0.8629
vn -0.8629 -0.3574 0.3574
vn -0.8629 -0.3574 0.3574
vn -0.8629 -0.3574 -0.3574
vn -0.8629 -0.3574 -0.3574
vn -0.3574 -0.3574 -0.8629
vn -0.3574 -0.3574 -0.8629
vn 0.3574 -0.3574 -0.8629
vn 0.3574 -0.3574 -0.8629
vn 0.8629 -0.3574 -0.3574
vn 0.8629 -0.3574 -0.3574
vn 0.8629 0.3574 0.3574
vn 0.8629 0.3574 0.3574
vn 0.3574 0.3574 0.8629
vn 0.3574 0.3574 0.8629
vn -0.3574 0.3574 0.8629
vn -0.3574 0.3574 0.8629
vn -0.8629 0.3574 0.3574
vn -0.8629 0.3574 0.3574
vn -0.8629 0.3574 -0.3574
vn -0.8629 0.3574 -0.3574
vn -0.3574 0.3574 -0.8629
vn -0.3574 0.3574 -0.8629
vn 0.3574 0.3574 -0.8629
vn 0.3574 0.3574 -0.8629
vn 0.8629 0.3574 -0.3574
vn 0.8629 0.3574 -0.3574
vn 0.3780 0.9125 0.1566
vn 0.1566 0.9125 0.3780
vn -0.1566 0.9125 0.3780
vn -0.3780 0.9125 0.1566
vn -0.3780 0.9125 -0.1566
vn -0.1566 0.9125 -0.3780
vn 0.1566 0.9125 -0.3780
vn 0.3780 0.9125 -0.1566
vn -0.7900 0.4016 -0.4633
vn -0.7890 0.4017 -0.4648
vn -0.6983 0.1919 0.6896
vn -0.6989 0.1924 0.6888
vn 0.3660 -0.2641 0.8924
vn 0.3668 -0.2645 0.8919
vn 0.9320 -0.3362 -0.1353
vn 0.9318 -0.3361 -0.1371
vn 0.2176 0.0753 -0.9731
vn 0.2175 0.0753 -0.9732
vn -0.8254 0.3179 -0.4666
vn -0.8247 0.3176 -0.4680
vn -0.6212 0.3729 0.6893
vn -0.6219 0.3732 0.6885
vn 0.4472 -0.0691 0.8918
vn 0.4479 -0.0696 0.8914
vn 0.9067 -0.3986 -0.1381
vn 0.9063 -0.3989 -0.1397
vn 0.1199 -0.1596 -0.9799
vn 0.1198 -0.1596 -0.9799
vn -0.3678 -0.9196 -0.1379
vn -0.3678 -0.9196 -0.1379
vn -0.3678 -0.9196 -0.1379
vn 0.3982 0.9102 -0.1138
vn 0.3982 0.9102 -0.1138
vn 0.3982 0.9102 -0.1138
vn 0.3780 -0.9125 0.1566
vn 0.1566 -0.9125 0.3780
vn -0.1566 -0.9125 0.3780
vn -0.3780 -0.9125 0.1566
vn -0.3780 -0.9125 -0.1566
vn -0.1566 -0.9125 -0.3780
vn 0.1566 -0.9125 -0.3780
vn 0.3780 -0.9125 -0.1566
vn 0.8629 -0.3574 0.3574
vn 0.8629 -0.3574 0.3574
vn 0.3574 -0.3574 0.8629
vn 0.3574 -0.3574 0.8629
vn -0.3574 -0.3574 0.8629
vn -0.3574 -0.3574 0.8629
vn -0.8629 -0.3574 0.3574
vn -0.8629 -0.3574 0.3574
vn -0.8629 -0.3574 -0.3574
vn -0.8629 -0.3574 -0.3574
vn -0.3574 -0.3574 -0.8629
vn -0.3574 -0.3574 -0.8629
vn 0.3574 -0.3574 -0.8629
vn 0.3574 -0.3574 -0.8629
vn 0.8629 -0.3574 -0.3574
vn 0.8629 -0.3574 -0.3574
vn 0.8629 0.3574 0.3574
vn 0.8629 0.3574 0.3574
vn 0.3574 0.3574 0.8629
vn 0.3574 0.3574 0.8629
vn -0.3574 0.3574 0.8629
vn -0.3574 0.3574 0.8629
vn -0.8629 0.3574 0.3574
vn -0.8629 0.3574 0.3574
vn -0.8629 0.3574 -0.3574
vn -0.8629 0.3574 -0.3574
vn -0.3574 0.3574 -0.8629
vn -0.3574 0.3574 -0.8629
vn 0.3574 0.3574 -0.8629
vn 0.3574 0.3574 -0.8629
vn 0.8629 0.3574 -0.3574
vn 0.8629 0.3574 -0.3574
vn 0.3780 0.9125 0.1566
vn 0.1566 0.9125 0.3780
vn -0.1566 0.9125 0.3780
vn -0.3780 0.9125 0.1566
vn -0.3780 0.9125 -0.1566
vn -0.1566 0.9125 -0.3780
vn 0.1566 0.9125 -0.3780
vn 0.3780 0.9125 -0.1566
vn -0.9511 0.3008 -0.0709
vn -0.9511 0.3008 -0.0709
vn -0.5878 0.7874 -0.1857
vn -0.5878 0.7874 -0.1857
vn 0.0000 0.9733 -0.2296
vn 0.0000 0.9733 -0.2296
vn 0.5878 0.7874 -0.1857
vn 0.5878 0.7874 -0.1857
vn 0.9511 0.3008 -0.0709
vn 0.9511 0.3008 -0.0709
vn 0.9511 -0.3008 0.0709
vn 0.9511 -0.3008 0.0709
vn 0.5878 -0.7874 0.1857
vn 0.5878 -0.7874 0.1857
vn 0.0000 -0.9733 0.2296
vn 0.0000 -0.9733 0.2296
vn -0.5878 -0.7874 0.1857
vn -0.5878 -0.7874 0.1857
vn -0.9511 -0.3008 0.0709
vn -0.9511 -0.3008 0.0709
vn 0.0000 -0.2296 -0.9733
vn -0.0000 -0.2296 -0.9733
vn -0.0000 -0.2296 -0.9733
vn -0.0000 -0.2296 -0.9733
vn 0.0000 -0.2296 -0.9733
vn -0.0000 -0.2296 -0.9733
vn -0.0000 -0.2296 -0.9733
vn 0.0000 -0.2296 -0.9733
vn -0.8660 0.4866 -0.1148
vn -0.8660 0.4866 -0.1148
vn 0.0000 0.9733 -0.2296
vn 0.0000 0.9733 -0.2296
vn 0.8660 0.4866 -0.1148
vn 0.8660 0.4866 -0.1148
vn 0.8660 -0.4866 0.1148
vn 0.8660 -0.4866 0.1148
vn 0.0000 -0.9733 0.2296
vn 0.0000 -0.9733 0.2296
vn -0.8660 -0.4866 0.1148
vn -0.8660 -0.4866 0.1148
vn 0.0000 -0.2296 -0.9733
vn 0.0000 -0.2296 -0.9733
vn -0.0000 -0.2296 -0.9733
vn 0.0000 -0.2296 -0.9733
usemtl Mat_Bone
f 233//439 234//439 232//439
f 234//440 235//440 232//440
f 235//441 236//441 232//441
f 236//442 237//442 232//442
f 237//443 238//443 232//443
f 238//444 239//444 232//444
f 239//445 240//445 232//445
f 240//446 241//446 232//446
f 241//447 242//447 232//447
f 242//448 233//448 232//448
f 243//449 244//449 234//449
f 243//450 234//450 233//450
f 244//451 245//451 235//451
f 244//452 235//452 234//452
f 245//453 246//453 236//453
f 245//454 236//454 235//454
f 246//455 247//455 237//455
f 246//456 237//456 236//456
f 247//457 248//457 238//457
f 247//458 238//458 237//458
f 248//459 249//459 239//459
f 248//460 239//460 238//460
f 249//461 250//461 240//461
f 249//462 240//462 239//462
f 250//463 251//463 241//463
f 250//464 241//464 240//464
f 251//465 252//465 242//465
f 251//466 242//466 241//466
f 252//467 243//467 233//467
f 252//468 233//468 242//468
f 253//469 254//469 244//469
f 253//470 244//470 243//470
f 254//471 255//471 245//471
f 254//472 245//472 244//472
f 255//473 256//473 246//473
f 255//474 246//474 245//474
f 256//475 257//475 247//475
f 256//476 247//476 246//476
f 257//477 258//477 248//477
f 257//478 248//478 247//478
f 258//479 259//479 249//479
f 258//480 249//480 248//480
f 259//481 260//481 250//481
f 259//482 250//482 249//482
f 260//483 261//483 251//483
f 260//484 251//484 250//484
f 261//485 262//485 252//485
f 261//486 252//486 251//486
f 262//487 253//487 243//487
f 262//488 243//488 252//488
f 263//489 264//489 254//489
f 263//490 254//490 253//490
f 264//491 265//491 255//491
f 264//492 255//492 254//492
f 265//493 266//493 256//493
f 265//494 256//494 255//494
f 266//495 267//495 257//495
f 266//496 257//496 256//496
f 267//497 268//497 258//497
f 267//498 258//498 257//498
f 268//499 269//499 259//499
f 268//500 259//500 258//500
f 269//501 270//501 260//501
f 269//502 260//502 259//502
f 270//503 271//503 261//503
f 270//504 261//504 260//504
f 271//505 272//505 262//505
f 271//506 262//506 261//506
f 272//507 263//507 253//507
f 272//508 253//508 262//508
f 273//509 274//509 264//509
f 273//510 264//510 263//510
f 274//511 275//511 265//511
f 274//512 265//512 264//512
f 275//513 276//513 266//513
f 275//514 266//514 265//514
f 276//515 277//515 267//515
f 276//516 267//516 266//516
f 277//517 278//517 268//517
f 277//518 268//518 267//518
f 278//519 279//519 269//519
f 278//520 269//520 268//520
f 279//521 280//521 270//521
f 279//522 270//522 269//522
f 280//523 281//523 271//523
f 280//524 271//524 270//524
f 281//525 282//525 272//525
f 281//526 272//526 271//526
f 282//527 273//527 263//527
f 282//528 263//528 272//528
f 283//529 274//529 273//529
f 283//530 275//530 274//530
f 283//531 276//531 275//531
f 283//532 277//532 276//532
f 283//533 278//533 277//533
f 283//534 279//534 278//534
f 283//535 280//535 279//535
f 283//536 281//536 280//536
f 283//537 282//537 281//537
f 283//538 273//538 282//538
usemtl Mat_Void
f 294//539 295//539 285//539
f 294//540 285//540 284//540
f 295//541 296//541 286//541
f 295//542 286//542 285//542
f 296//543 297//543 287//543
f 296//544 287//544 286//544
f 297//545 298//545 288//545
f 297//546 288//546 287//546
f 298//547 299//547 289//547
f 298//548 289//548 288//548
f 299//549 300//549 290//549
f 299//550 290//550 289//550
f 300//551 301//551 291//551
f 300//552 291//552 290//552
f 301//553 302//553 292//553
f 301//554 292//554 291//554
f 302//555 303//555 293//555
f 302//556 293//556 292//556
f 303//557 294//557 284//557
f 303//558 284//558 293//558
f 303//559 302//559 301//559
f 303//560 301//560 300//560
f 303//561 300//561 299//561
f 303//562 299//562 298//562
f 303//563 298//563 297//563
f 303//564 297//564 296//564
f 303//565 296//565 295//565
f 303//566 295//566 294//566
usemtl Mat_Bone
f 310//567 311//567 305//567
f 310//568 305//568 304//568
f 311//569 312//569 306//569
f 311//570 306//570 305//570
f 312//571 313//571 307//571
f 312//572 307//572 306//572
f 313//573 314//573 308//573
f 313//574 308//574 307//574
f 314//575 315//575 309//575
f 314//576 309//576 308//576
f 315//577 310//577 304//577
f 315//578 304//578 309//578
f 315//579 314//579 313//579
f 315//580 313//580 312//580
f 315//581 312//581 311//581
f 315//582 311//582 310//582
f 321//583 322//583 317//583
f 321//584 317//584 316//584
f 322//585 323//585 318//585
f 322//586 318//586 317//586
f 323//587 324//587 319//587
f 323//588 319//588 318//588
f 324//589 325//589 320//589
f 324//590 320//590 319//590
f 325//591 321//591 316//591
f 325//592 316//592 320//592
f 325//593 324//593 323//593
f 325//594 323//594 322//594
f 325//595 322//595 321//595
usemtl Mat_Gum_tomatoD
f 327//596 328//596 326//596
f 328//597 329//597 326//597
f 329//598 330//598 326//598
f 330//599 331//599 326//599
f 331//600 332//600 326//600
f 332//601 333//601 326//601
f 333//602 334//602 326//602
f 334//603 327//603 326//603
f 335//604 336//604 328//604
f 335//605 328//605 327//605
f 336//606 337//606 329//606
f 336//607 329//607 328//607
f 337//608 338//608 330//608
f 337//609 330//609 329//609
f 338//610 339//610 331//610
f 338//611 331//611 330//611
f 339//612 340//612 332//612
f 339//613 332//613 331//613
f 340//614 341//614 333//614
f 340//615 333//615 332//615
f 341//616 342//616 334//616
f 341//617 334//617 333//617
f 342//618 335//618 327//618
f 342//619 327//619 334//619
f 343//620 344//620 336//620
f 343//621 336//621 335//621
f 344//622 345//622 337//622
f 344//623 337//623 336//623
f 345//624 346//624 338//624
f 345//625 338//625 337//625
f 346//626 347//626 339//626
f 346//627 339//627 338//627
f 347//628 348//628 340//628
f 347//629 340//629 339//629
f 348//630 349//630 341//630
f 348//631 341//631 340//631
f 349//632 350//632 342//632
f 349//633 342//633 341//633
f 350//634 343//634 335//634
f 350//635 335//635 342//635
f 351//636 344//636 343//636
f 351//637 345//637 344//637
f 351//638 346//638 345//638
f 351//639 347//639 346//639
f 351//640 348//640 347//640
f 351//641 349//641 348//641
f 351//642 350//642 349//642
f 351//643 343//643 350//643
f 353//644 354//644 352//644
f 354//645 355//645 352//645
f 355//646 356//646 352//646
f 356//647 353//647 352//647
f 357//648 354//648 353//648
f 357//649 355//649 354//649
f 357//650 356//650 355//650
f 357//651 353//651 356//651
f 359//652 360//652 358//652
f 360//653 361//653 358//653
f 361//654 362//654 358//654
f 362//655 359//655 358//655
f 363//656 360//656 359//656
f 363//657 361//657 360//657
f 363//658 362//658 361//658
f 363//659 359//659 362//659
f 365//660 366//660 364//660
f 366//661 367//661 364//661
f 367//662 368//662 364//662
f 368//663 365//663 364//663
f 369//664 366//664 365//664
f 369//665 367//665 366//665
f 369//666 368//666 367//666
f 369//667 365//667 368//667
f 371//668 372//668 370//668
f 372//669 373//669 370//669
f 373//670 374//670 370//670
f 374//671 375//671 370//671
f 375//672 376//672 370//672
f 376//673 377//673 370//673
f 377//674 378//674 370//674
f 378//675 371//675 370//675
f 379//676 380//676 372//676
f 379//677 372//677 371//677
f 380//678 381//678 373//678
f 380//679 373//679 372//679
f 381//680 382//680 374//680
f 381//681 374//681 373//681
f 382//682 383//682 375//682
f 382//683 375//683 374//683
f 383//684 384//684 376//684
f 383//685 376//685 375//685
f 384//686 385//686 377//686
f 384//687 377//687 376//687
f 385//688 386//688 378//688
f 385//689 378//689 377//689
f 386//690 379//690 371//690
f 386//691 371//691 378//691
f 387//692 388//692 380//692
f 387//693 380//693 379//693
f 388//694 389//694 381//694
f 388//695 381//695 380//695
f 389//696 390//696 382//696
f 389//697 382//697 381//697
f 390//698 391//698 383//698
f 390//699 383//699 382//699
f 391//700 392//700 384//700
f 391//701 384//701 383//701
f 392//702 393//702 385//702
f 392//703 385//703 384//703
f 393//704 394//704 386//704
f 393//705 386//705 385//705
f 394//706 387//706 379//706
f 394//707 379//707 386//707
f 395//708 388//708 387//708
f 395//709 389//709 388//709
f 395//710 390//710 389//710
f 395//711 391//711 390//711
f 395//712 392//712 391//712
f 395//713 393//713 392//713
f 395//714 394//714 393//714
f 395//715 387//715 394//715
f 397//716 398//716 396//716
f 398//717 399//717 396//717
f 399//718 400//718 396//718
f 400//719 397//719 396//719
f 401//720 398//720 397//720
f 401//721 399//721 398//721
f 401//722 400//722 399//722
f 401//723 397//723 400//723
f 403//724 404//724 402//724
f 404//725 405//725 402//725
f 405//726 406//726 402//726
f 406//727 403//727 402//727
f 407//728 404//728 403//728
f 407//729 405//729 404//729
f 407//730 406//730 405//730
f 407//731 403//731 406//731
f 409//732 410//732 408//732
f 410//733 411//733 408//733
f 411//734 412//734 408//734
f 412//735 409//735 408//735
f 413//736 410//736 409//736
f 413//737 411//737 410//737
f 413//738 412//738 411//738
f 413//739 409//739 412//739
usemtl Mat_Void
f 414//740 415//740 419//740
f 414//741 419//741 418//741
f 415//742 416//742 420//742
f 415//743 420//743 419//743
f 416//744 417//744 421//744
f 416//745 421//745 420//745
f 417//746 414//746 418//746
f 417//747 418//747 421//747
f 418//748 419//748 423//748
f 418//749 423//749 422//749
f 419//750 420//750 424//750
f 419//751 424//751 423//751
f 420//752 421//752 425//752
f 420//753 425//753 424//753
f 421//754 418//754 422//754
f 421//755 422//755 425//755
f 422//756 423//756 427//756
f 422//757 427//757 426//757
f 423//758 424//758 428//758
f 423//759 428//759 427//759
f 424//760 425//760 429//760
f 424//761 429//761 428//761
f 425//762 422//762 426//762
f 425//763 426//763 429//763
f 426//764 427//764 431//764
f 426//765 431//765 430//765
f 427//766 428//766 432//766
f 427//767 432//767 431//767
f 428//768 429//768 433//768
f 428//769 433//769 432//769
f 429//770 426//770 430//770
f 429//771 430//771 433//771
f 430//772 431//772 435//772
f 430//773 435//773 434//773
f 431//774 432//774 436//774
f 431//775 436//775 435//775
f 432//776 433//776 437//776
f 432//777 437//777 436//777
f 433//778 430//778 434//778
f 433//779 434//779 437//779
f 434//780 435//780 439//780
f 434//781 439//781 438//781
f 435//782 436//782 440//782
f 435//783 440//783 439//783
f 436//784 437//784 441//784
f 436//785 441//785 440//785
f 437//786 434//786 438//786
f 437//787 438//787 441//787
f 417//788 416//788 415//788
f 417//789 415//789 414//789
f 438//790 439//790 440//790
f 438//791 440//791 441//791
usemtl Mat_Gum_tomatoD
f 442//792 443//792 448//792
f 442//793 448//793 447//793
f 443//794 444//794 449//794
f 443//795 449//795 448//795
f 444//796 445//796 450//796
f 444//797 450//797 449//797
f 445//798 446//798 451//798
f 445//799 451//799 450//799
f 446//800 442//800 447//800
f 446//801 447//801 451//801
f 447//802 448//802 453//802
f 447//803 453//803 452//803
f 448//804 449//804 454//804
f 448//805 454//805 453//805
f 449//806 450//806 455//806
f 449//807 455//807 454//807
f 450//808 451//808 456//808
f 450//809 456//809 455//809
f 451//810 447//810 452//810
f 451//811 452//811 456//811
f 446//812 445//812 444//812
f 446//813 444//813 443//813
f 446//814 443//814 442//814
f 452//815 453//815 454//815
f 452//816 454//816 455//816
f 452//817 455//817 456//817
usemtl Mat_NeonAmber
f 458//818 459//818 457//818
f 459//819 460//819 457//819
f 460//820 461//820 457//820
f 461//821 462//821 457//821
f 462//822 463//822 457//822
f 463//823 464//823 457//823
f 464//824 465//824 457//824
f 465//825 458//825 457//825
f 466//826 467//826 459//826
f 466//827 459//827 458//827
f 467//828 468//828 460//828
f 467//829 460//829 459//829
f 468//830 469//830 461//830
f 468//831 461//831 460//831
f 469//832 470//832 462//832
f 469//833 462//833 461//833
f 470//834 471//834 463//834
f 470//835 463//835 462//835
f 471//836 472//836 464//836
f 471//837 464//837 463//837
f 472//838 473//838 465//838
f 472//839 465//839 464//839
f 473//840 466//840 458//840
f 473//841 458//841 465//841
f 474//842 475//842 467//842
f 474//843 467//843 466//843
f 475//844 476//844 468//844
f 475//845 468//845 467//845
f 476//846 477//846 469//846
f 476//847 469//847 468//847
f 477//848 478//848 470//848
f 477//849 470//849 469//849
f 478//850 479//850 471//850
f 478//851 471//851 470//851
f 479//852 480//852 472//852
f 479//853 472//853 471//853
f 480//854 481//854 473//854
f 480//855 473//855 472//855
f 481//856 474//856 466//856
f 481//857 466//857 473//857
f 482//858 475//858 474//858
f 482//859 476//859 475//859
f 482//860 477//860 476//860
f 482//861 478//861 477//861
f 482//862 479//862 478//862
f 482//863 480//863 479//863
f 482//864 481//864 480//864
f 482//865 474//865 481//865
usemtl Mat_Gum_tomatoD
f 483//866 484//866 489//866
f 483//867 489//867 488//867
f 484//868 485//868 490//868
f 484//869 490//869 489//869
f 485//870 486//870 491//870
f 485//871 491//871 490//871
f 486//872 487//872 492//872
f 486//873 492//873 491//873
f 487//874 483//874 488//874
f 487//875 488//875 492//875
f 488//876 489//876 494//876
f 488//877 494//877 493//877
f 489//878 490//878 495//878
f 489//879 495//879 494//879
f 490//880 491//880 496//880
f 490//881 496//881 495//881
f 491//882 492//882 497//882
f 491//883 497//883 496//883
f 492//884 488//884 493//884
f 492//885 493//885 497//885
f 487//886 486//886 485//886
f 487//887 485//887 484//887
f 487//888 484//888 483//888
f 493//889 494//889 495//889
f 493//890 495//890 496//890
f 493//891 496//891 497//891
usemtl Mat_NeonAmber
f 499//892 500//892 498//892
f 500//893 501//893 498//893
f 501//894 502//894 498//894
f 502//895 503//895 498//895
f 503//896 504//896 498//896
f 504//897 505//897 498//897
f 505//898 506//898 498//898
f 506//899 499//899 498//899
f 507//900 508//900 500//900
f 507//901 500//901 499//901
f 508//902 509//902 501//902
f 508//903 501//903 500//903
f 509//904 510//904 502//904
f 509//905 502//905 501//905
f 510//906 511//906 503//906
f 510//907 503//907 502//907
f 511//908 512//908 504//908
f 511//909 504//909 503//909
f 512//910 513//910 505//910
f 512//911 505//911 504//911
f 513//912 514//912 506//912
f 513//913 506//913 505//913
f 514//914 507//914 499//914
f 514//915 499//915 506//915
f 515//916 516//916 508//916
f 515//917 508//917 507//917
f 516//918 517//918 509//918
f 516//919 509//919 508//919
f 517//920 518//920 510//920
f 517//921 510//921 509//921
f 518//922 519//922 511//922
f 518//923 511//923 510//923
f 519//924 520//924 512//924
f 519//925 512//925 511//925
f 520//926 521//926 513//926
f 520//927 513//927 512//927
f 521//928 522//928 514//928
f 521//929 514//929 513//929
f 522//930 515//930 507//930
f 522//931 507//931 514//931
f 523//932 516//932 515//932
f 523//933 517//933 516//933
f 523//934 518//934 517//934
f 523//935 519//935 518//935
f 523//936 520//936 519//936
f 523//937 521//937 520//937
f 523//938 522//938 521//938
f 523//939 515//939 522//939
usemtl Mat_Void
f 285//940 295//940 294//940
f 284//941 285//941 294//941
f 286//942 296//942 295//942
f 285//943 286//943 295//943
f 287//944 297//944 296//944
f 286//945 287//945 296//945
f 288//946 298//946 297//946
f 287//947 288//947 297//947
f 289//948 299//948 298//948
f 288//949 289//949 298//949
f 290//950 300//950 299//950
f 289//951 290//951 299//951
f 291//952 301//952 300//952
f 290//953 291//953 300//953
f 292//954 302//954 301//954
f 291//955 292//955 301//955
f 293//956 303//956 302//956
f 292//957 293//957 302//957
f 284//958 294//958 303//958
f 293//959 284//959 303//959
f 301//960 302//960 303//960
f 300//961 301//961 303//961
f 299//962 300//962 303//962
f 298//963 299//963 303//963
f 297//964 298//964 303//964
f 296//965 297//965 303//965
f 295//966 296//966 303//966
f 294//967 295//967 303//967
usemtl Mat_Bone
f 305//968 311//968 310//968
f 304//969 305//969 310//969
f 306//970 312//970 311//970
f 305//971 306//971 311//971
f 307//972 313//972 312//972
f 306//973 307//973 312//973
f 308//974 314//974 313//974
f 307//975 308//975 313//975
f 309//976 315//976 314//976
f 308//977 309//977 314//977
f 304//978 310//978 315//978
f 309//979 304//979 315//979
f 313//980 314//980 315//980
f 312//981 313//981 315//981
f 311//982 312//982 315//982
f 310//983 311//983 315//983
o Char_Native_Kid_Arm_L
v 0.40824 0.46491 -0.03618
v 0.40598 0.47978 0.01524
v 0.37694 0.46491 0.05773
v 0.33814 0.42900 0.06641
v 0.31230 0.39309 0.03618
v 0.31457 0.37822 -0.01524
v 0.34361 0.39309 -0.05773
v 0.38241 0.42900 -0.06641
v 0.53917 0.32799 0.01119
v 0.53381 0.34506 0.05784
v 0.49708 0.34101 0.09405
v 0.45051 0.31821 0.09859
v 0.42137 0.29001 0.06881
v 0.42674 0.27294 0.02216
v 0.46347 0.27699 -0.01405
v 0.51004 0.29979 -0.01859
v 0.55748 0.18949 0.08192
v 0.55188 0.20913 0.12305
v 0.51605 0.21697 0.15068
v 0.47098 0.20843 0.14862
v 0.44306 0.18851 0.11808
v 0.44866 0.16887 0.07695
v 0.48449 0.16103 0.04932
v 0.52957 0.16957 0.05138
v 0.50027 0.07400 0.12000
v 0.55331 0.09597 0.12000
v 0.53777 0.09597 0.15750
v 0.50027 0.09597 0.17303
v 0.46277 0.09597 0.15750
v 0.44724 0.09597 0.12000
v 0.46277 0.09597 0.08250
v 0.50027 0.09597 0.06697
v 0.53777 0.09597 0.08250
v 0.57527 0.14900 0.12000
v 0.55331 0.14900 0.17303
v 0.50027 0.14900 0.19500
v 0.44724 0.14900 0.17303
v 0.42527 0.14900 0.12000
v 0.44724 0.14900 0.06697
v 0.50027 0.14900 0.04500
v 0.55331 0.14900 0.06697
v 0.55331 0.20203 0.12000
v 0.53777 0.20203 0.15750
v 0.50027 0.20203 0.17303
v 0.46277 0.20203 0.15750
v 0.44724 0.20203 0.12000
v 0.46277 0.20203 0.08250
v 0.50027 0.20203 0.06697
v 0.53777 0.20203 0.08250
v 0.50027 0.22400 0.12000
v 0.45027 0.14400 0.16000
v 0.48058 0.16150 0.16000
v 0.46543 0.16150 0.18625
v 0.43512 0.16150 0.18625
v 0.41996 0.16150 0.16000
v 0.43512 0.16150 0.13375
v 0.46543 0.16150 0.13375
v 0.48058 0.19650 0.16000
v 0.46543 0.19650 0.18625
v 0.43512 0.19650 0.18625
v 0.41996 0.19650 0.16000
v 0.43512 0.19650 0.13375
v 0.46543 0.19650 0.13375
v 0.45027 0.21400 0.16000
v 0.51225 0.14823 0.11985
v 0.50027 0.14665 0.13177
v 0.48830 0.14977 0.12015
v 0.50027 0.15135 0.10823
v 0.53225 0.44823 0.17985
v 0.52027 0.44665 0.19177
v 0.50830 0.44977 0.18015
v 0.52027 0.45135 0.16823
v 0.52027 0.41900 0.18000
v 0.57223 0.44900 0.18000
v 0.54625 0.44900 0.22500
v 0.49429 0.44900 0.22500
v 0.46831 0.44900 0.18000
v 0.49429 0.44900 0.13500
v 0.54625 0.44900 0.13500
v 0.57223 0.50900 0.18000
v 0.54625 0.50900 0.22500
v 0.49429 0.50900 0.22500
v 0.46831 0.50900 0.18000
v 0.49429 0.50900 0.13500
v 0.54625 0.50900 0.13500
v 0.52027 0.53900 0.18000
vn 0.7407 0.6534 -0.1564
vn 0.7402 0.6544 -0.1543
vn 0.5001 0.6520 0.5699
vn 0.4950 0.6515 0.5750
vn -0.0225 0.2578 0.9659
vn -0.0301 0.2542 0.9667
vn -0.5211 -0.2982 0.7997
vn -0.5242 -0.3001 0.7970
vn -0.7039 -0.6901 0.1686
vn -0.7033 -0.6899 0.1716
vn -0.4636 -0.6884 -0.5578
vn -0.4664 -0.6924 -0.5505
vn 0.0592 -0.2945 -0.9538
vn 0.0548 -0.3016 -0.9519
vn 0.5582 0.2613 -0.7875
vn 0.5570 0.2581 -0.7894
vn 0.9859 0.1578 0.0557
vn 0.9854 0.1598 0.0579
vn 0.6198 0.4024 0.6737
vn 0.6120 0.4067 0.6782
vn -0.1050 0.3961 0.9122
vn -0.1169 0.3976 0.9101
vn -0.7700 0.1378 0.6229
vn -0.7741 0.1373 0.6179
vn -0.9746 -0.2217 -0.0310
vn -0.9748 -0.2214 -0.0270
vn -0.5946 -0.4659 -0.6553
vn -0.6017 -0.4677 -0.6475
vn 0.1359 -0.4531 -0.8811
vn 0.1270 -0.4578 -0.8799
vn 0.7870 -0.1949 -0.5854
vn 0.7845 -0.1981 -0.5877
vn -0.6882 0.6882 -0.2294
vn -0.6882 0.6882 -0.2294
vn -0.6882 0.6882 -0.2294
vn -0.6882 0.6882 -0.2294
vn -0.6882 0.6882 -0.2294
vn -0.6882 0.6882 -0.2294
vn 0.1474 -0.8847 0.4423
vn 0.1474 -0.8847 0.4423
vn 0.1474 -0.8847 0.4423
vn 0.1474 -0.8847 0.4423
vn 0.1474 -0.8847 0.4423
vn 0.1474 -0.8847 0.4423
vn 0.3780 -0.9125 0.1566
vn 0.1566 -0.9125 0.3780
vn -0.1566 -0.9125 0.3780
vn -0.3780 -0.9125 0.1566
vn -0.3780 -0.9125 -0.1566
vn -0.1566 -0.9125 -0.3780
vn 0.1566 -0.9125 -0.3780
vn 0.3780 -0.9125 -0.1566
vn 0.8629 -0.3574 0.3574
vn 0.8629 -0.3574 0.3574
vn 0.3574 -0.3574 0.8629
vn 0.3574 -0.3574 0.8629
vn -0.3574 -0.3574 0.8629
vn -0.3574 -0.3574 0.8629
vn -0.8629 -0.3574 0.3574
vn -0.8629 -0.3574 0.3574
vn -0.8629 -0.3574 -0.3574
vn -0.8629 -0.3574 -0.3574
vn -0.3574 -0.3574 -0.8629
vn -0.3574 -0.3574 -0.8629
vn 0.3574 -0.3574 -0.8629
vn 0.3574 -0.3574 -0.8629
vn 0.8629 -0.3574 -0.3574
vn 0.8629 -0.3574 -0.3574
vn 0.8629 0.3574 0.3574
vn 0.8629 0.3574 0.3574
vn 0.3574 0.3574 0.8629
vn 0.3574 0.3574 0.8629
vn -0.3574 0.3574 0.8629
vn -0.3574 0.3574 0.8629
vn -0.8629 0.3574 0.3574
vn -0.8629 0.3574 0.3574
vn -0.8629 0.3574 -0.3574
vn -0.8629 0.3574 -0.3574
vn -0.3574 0.3574 -0.8629
vn -0.3574 0.3574 -0.8629
vn 0.3574 0.3574 -0.8629
vn 0.3574 0.3574 -0.8629
vn 0.8629 0.3574 -0.3574
vn 0.8629 0.3574 -0.3574
vn 0.3780 0.9125 0.1566
vn 0.1566 0.9125 0.3780
vn -0.1566 0.9125 0.3780
vn -0.3780 0.9125 0.1566
vn -0.3780 0.9125 -0.1566
vn -0.1566 0.9125 -0.3780
vn 0.1566 0.9125 -0.3780
vn 0.3780 0.9125 -0.1566
vn 0.4804 -0.8321 0.2774
vn 0.0000 -0.8321 0.5547
vn -0.4804 -0.8321 0.2774
vn -0.4804 -0.8321 -0.2774
vn 0.0000 -0.8321 -0.5547
vn 0.4804 -0.8321 -0.2774
vn 0.8660 0.0000 0.5000
vn 0.8660 0.0000 0.5000
vn 0.0000 0.0000 1.0000
vn 0.0000 0.0000 1.0000
vn -0.8660 0.0000 0.5000
vn -0.8660 0.0000 0.5000
vn -0.8660 0.0000 -0.5000
vn -0.8660 -0.0000 -0.5000
vn 0.0000 0.0000 -1.0000
vn 0.0000 0.0000 -1.0000
vn 0.8660 0.0000 -0.5000
vn 0.8660 0.0000 -0.5000
vn 0.4804 0.8321 0.2774
vn 0.0000 0.8321 0.5547
vn -0.4804 0.8321 0.2774
vn -0.4804 0.8321 -0.2774
vn 0.0000 0.8321 -0.5547
vn 0.4804 0.8321 -0.2774
vn 0.7056 -0.1839 0.6843
vn 0.7056 -0.1839 0.6843
vn -0.7056 -0.0934 0.7024
vn -0.7056 -0.0934 0.7024
vn -0.7056 0.1839 -0.6843
vn -0.7056 0.1839 -0.6843
vn 0.7056 0.0934 -0.7024
vn 0.7056 0.0934 -0.7024
vn 0.0652 0.9785 0.1957
vn 0.0652 0.9785 0.1957
vn -0.0652 -0.9785 -0.1957
vn -0.0652 -0.9785 -0.1957
vn 0.4804 -0.8321 0.2774
vn 0.0000 -0.8321 0.5547
vn -0.4804 -0.8321 0.2774
vn -0.4804 -0.8321 -0.2774
vn 0.0000 -0.8321 -0.5547
vn 0.4804 -0.8321 -0.2774
vn 0.8660 0.0000 0.5000
vn 0.8660 0.0000 0.5000
vn 0.0000 -0.0000 1.0000
vn 0.0000 0.0000 1.0000
vn -0.8660 -0.0000 0.5000
vn -0.8660 -0.0000 0.5000
vn -0.8660 0.0000 -0.5000
vn -0.8660 -0.0000 -0.5000
vn 0.0000 0.0000 -1.0000
vn 0.0000 0.0000 -1.0000
vn 0.8660 0.0000 -0.5000
vn 0.8660 0.0000 -0.5000
vn 0.4804 0.8321 0.2774
vn 0.0000 0.8321 0.5547
vn -0.4804 0.8321 0.2774
vn -0.4804 0.8321 -0.2774
vn 0.0000 0.8321 -0.5547
vn 0.4804 0.8321 -0.2774
usemtl Mat_Gum_tomato
f 524//984 525//984 533//984
f 524//985 533//985 532//985
f 525//986 526//986 534//986
f 525//987 534//987 533//987
f 526//988 527//988 535//988
f 526//989 535//989 534//989
f 527//990 528//990 536//990
f 527//991 536//991 535//991
f 528//992 529//992 537//992
f 528//993 537//993 536//993
f 529//994 530//994 538//994
f 529//995 538//995 537//995
f 530//996 531//996 539//996
f 530//997 539//997 538//997
f 531//998 524//998 532//998
f 531//999 532//999 539//999
f 532//1000 533//1000 541//1000
f 532//1001 541//1001 540//1001
f 533//1002 534//1002 542//1002
f 533//1003 542//1003 541//1003
f 534//1004 535//1004 543//1004
f 534//1005 543//1005 542//1005
f 535//1006 536//1006 544//1006
f 535//1007 544//1007 543//1007
f 536//1008 537//1008 545//1008
f 536//1009 545//1009 544//1009
f 537//1010 538//1010 546//1010
f 537//1011 546//1011 545//1011
f 538//1012 539//1012 547//1012
f 538//1013 547//1013 546//1013
f 539//1014 532//1014 540//1014
f 539//1015 540//1015 547//1015
f 531//1016 530//1016 529//1016
f 531//1017 529//1017 528//1017
f 531//1018 528//1018 527//1018
f 531//1019 527//1019 526//1019
f 531//1020 526//1020 525//1020
f 531//1021 525//1021 524//1021
f 540//1022 541//1022 542//1022
f 540//1023 542//1023 543//1023
f 540//1024 543//1024 544//1024
f 540//1025 544//1025 545//1025
f 540//1026 545//1026 546//1026
f 540//1027 546//1027 547//1027
f 549//1028 550//1028 548//1028
f 550//1029 551//1029 548//1029
f 551//1030 552//1030 548//1030
f 552//1031 553//1031 548//1031
f 553//1032 554//1032 548//1032
f 554//1033 555//1033 548//1033
f 555//1034 556//1034 548//1034
f 556//1035 549//1035 548//1035
f 557//1036 558//1036 550//1036
f 557//1037 550//1037 549//1037
f 558//1038 559//1038 551//1038
f 558//1039 551//1039 550//1039
f 559//1040 560//1040 552//1040
f 559//1041 552//1041 551//1041
f 560//1042 561//1042 553//1042
f 560//1043 553//1043 552//1043
f 561//1044 562//1044 554//1044
f 561//1045 554//1045 553//1045
f 562//1046 563//1046 555//1046
f 562//1047 555//1047 554//1047
f 563//1048 564//1048 556//1048
f 563//1049 556//1049 555//1049
f 564//1050 557//1050 549//1050
f 564//1051 549//1051 556//1051
f 565//1052 566//1052 558//1052
f 565//1053 558//1053 557//1053
f 566//1054 567//1054 559//1054
f 566//1055 559//1055 558//1055
f 567//1056 568//1056 560//1056
f 567//1057 560//1057 559//1057
f 568//1058 569//1058 561//1058
f 568//1059 561//1059 560//1059
f 569//1060 570//1060 562//1060
f 569//1061 562//1061 561//1061
f 570//1062 571//1062 563//1062
f 570//1063 563//1063 562//1063
f 571//1064 572//1064 564//1064
f 571//1065 564//1065 563//1065
f 572//1066 565//1066 557//1066
f 572//1067 557//1067 564//1067
f 573//1068 566//1068 565//1068
f 573//1069 567//1069 566//1069
f 573//1070 568//1070 567//1070
f 573//1071 569//1071 568//1071
f 573//1072 570//1072 569//1072
f 573//1073 571//1073 570//1073
f 573//1074 572//1074 571//1074
f 573//1075 565//1075 572//1075
f 575//1076 576//1076 574//1076
f 576//1077 577//1077 574//1077
f 577//1078 578//1078 574//1078
f 578//1079 579//1079 574//1079
f 579//1080 580//1080 574//1080
f 580//1081 575//1081 574//1081
f 581//1082 582//1082 576//1082
f 581//1083 576//1083 575//1083
f 582//1084 583//1084 577//1084
f 582//1085 577//1085 576//1085
f 583//1086 584//1086 578//1086
f 583//1087 578//1087 577//1087
f 584//1088 585//1088 579//1088
f 584//1089 579//1089 578//1089
f 585//1090 586//1090 580//1090
f 585//1091 580//1091 579//1091
f 586//1092 581//1092 575//1092
f 586//1093 575//1093 580//1093
f 587//1094 582//1094 581//1094
f 587//1095 583//1095 582//1095
f 587//1096 584//1096 583//1096
f 587//1097 585//1097 584//1097
f 587//1098 586//1098 585//1098
f 587//1099 581//1099 586//1099
usemtl Mat_DarkWood
f 592//1100 593//1100 589//1100
f 592//1101 589//1101 588//1101
f 593//1102 594//1102 590//1102
f 593//1103 590//1103 589//1103
f 594//1104 595//1104 591//1104
f 594//1105 591//1105 590//1105
f 595//1106 592//1106 588//1106
f 595//1107 588//1107 591//1107
f 595//1108 594//1108 593//1108
f 595//1109 593//1109 592//1109
f 588//1110 589//1110 590//1110
f 588//1111 590//1111 591//1111
usemtl Mat_NeonAmber
f 597//1112 598//1112 596//1112
f 598//1113 599//1113 596//1113
f 599//1114 600//1114 596//1114
f 600//1115 601//1115 596//1115
f 601//1116 602//1116 596//1116
f 602//1117 597//1117 596//1117
f 603//1118 604//1118 598//1118
f 603//1119 598//1119 597//1119
f 604//1120 605//1120 599//1120
f 604//1121 599//1121 598//1121
f 605//1122 606//1122 600//1122
f 605//1123 600//1123 599//1123
f 606//1124 607//1124 601//1124
f 606//1125 601//1125 600//1125
f 607//1126 608//1126 602//1126
f 607//1127 602//1127 601//1127
f 608//1128 603//1128 597//1128
f 608//1129 597//1129 602//1129
f 609//1130 604//1130 603//1130
f 609//1131 605//1131 604//1131
f 609//1132 606//1132 605//1132
f 609//1133 607//1133 606//1133
f 609//1134 608//1134 607//1134
f 609//1135 603//1135 608//1135
o Char_Native_Kid_Arm_R
v -0.37694 0.46491 0.05773
v -0.40598 0.47978 0.01524
v -0.40824 0.46491 -0.03618
v -0.38241 0.42900 -0.06641
v -0.34361 0.39309 -0.05773
v -0.31457 0.37822 -0.01524
v -0.31230 0.39309 0.03618
v -0.33814 0.42900 0.06641
v -0.49708 0.34101 0.09405
v -0.53381 0.34506 0.05784
v -0.53917 0.32799 0.01119
v -0.51004 0.29979 -0.01859
v -0.46347 0.27699 -0.01405
v -0.42674 0.27294 0.02216
v -0.42137 0.29001 0.06881
v -0.45051 0.31821 0.09859
v -0.51605 0.21697 0.15068
v -0.55188 0.20913 0.12305
v -0.55748 0.18949 0.08192
v -0.52957 0.16957 0.05138
v -0.48449 0.16103 0.04932
v -0.44866 0.16887 0.07695
v -0.44306 0.18851 0.11808
v -0.47098 0.20843 0.14862
v -0.50027 0.07400 0.12000
v -0.44724 0.09597 0.12000
v -0.46277 0.09597 0.15750
v -0.50027 0.09597 0.17303
v -0.53777 0.09597 0.15750
v -0.55331 0.09597 0.12000
v -0.53777 0.09597 0.08250
v -0.50027 0.09597 0.06697
v -0.46277 0.09597 0.08250
v -0.42527 0.14900 0.12000
v -0.44724 0.14900 0.17303
v -0.50027 0.14900 0.19500
v -0.55331 0.14900 0.17303
v -0.57527 0.14900 0.12000
v -0.55331 0.14900 0.06697
v -0.50027 0.14900 0.04500
v -0.44724 0.14900 0.06697
v -0.44724 0.20203 0.12000
v -0.46277 0.20203 0.15750
v -0.50027 0.20203 0.17303
v -0.53777 0.20203 0.15750
v -0.55331 0.20203 0.12000
v -0.53777 0.20203 0.08250
v -0.50027 0.20203 0.06697
v -0.46277 0.20203 0.08250
v -0.50027 0.22400 0.12000
v -0.45027 0.14400 0.16000
v -0.41996 0.16150 0.16000
v -0.43512 0.16150 0.18625
v -0.46543 0.16150 0.18625
v -0.48058 0.16150 0.16000
v -0.46543 0.16150 0.13375
v -0.43512 0.16150 0.13375
v -0.41996 0.19650 0.16000
v -0.43512 0.19650 0.18625
v -0.46543 0.19650 0.18625
v -0.48058 0.19650 0.16000
v -0.46543 0.19650 0.13375
v -0.43512 0.19650 0.13375
v -0.45027 0.21400 0.16000
vn -0.4988 0.6534 0.5695
vn -0.4961 0.6498 0.5759
vn -0.7403 0.6538 -0.1565
vn -0.7406 0.6540 -0.1541
vn -0.5588 0.2606 -0.7873
vn -0.5564 0.2589 -0.7895
vn -0.0607 -0.2960 -0.9533
vn -0.0537 -0.2995 -0.9526
vn 0.4619 -0.6901 -0.5572
vn 0.4678 -0.6905 -0.5517
vn 0.7032 -0.6907 0.1688
vn 0.7040 -0.6893 0.1713
vn 0.5221 -0.2973 0.7994
vn 0.5232 -0.3013 0.7972
vn 0.0242 0.2595 0.9654
vn 0.0289 0.2517 0.9674
vn -0.6188 0.4051 0.6730
vn -0.6124 0.4039 0.6796
vn -0.9858 0.1586 0.0554
vn -0.9856 0.1590 0.0583
vn -0.7873 -0.1960 -0.5846
vn -0.7843 -0.1968 -0.5884
vn -0.1373 -0.4557 -0.8795
vn -0.1265 -0.4547 -0.8816
vn 0.5931 -0.4694 -0.6541
vn 0.6024 -0.4641 -0.6494
vn 0.9743 -0.2230 -0.0305
vn 0.9751 -0.2200 -0.0277
vn 0.7707 0.1397 0.6218
vn 0.7737 0.1351 0.6190
vn 0.1067 0.3994 0.9105
vn 0.1163 0.3938 0.9118
vn 0.6882 0.6882 -0.2294
vn 0.6882 0.6882 -0.2294
vn 0.6882 0.6882 -0.2294
vn 0.6882 0.6882 -0.2294
vn 0.6882 0.6882 -0.2294
vn 0.6882 0.6882 -0.2294
vn -0.1474 -0.8847 0.4423
vn -0.1474 -0.8847 0.4423
vn -0.1474 -0.8847 0.4423
vn -0.1474 -0.8847 0.4423
vn -0.1474 -0.8847 0.4423
vn -0.1474 -0.8847 0.4423
vn 0.3780 -0.9125 0.1566
vn 0.1566 -0.9125 0.3780
vn -0.1566 -0.9125 0.3780
vn -0.3780 -0.9125 0.1566
vn -0.3780 -0.9125 -0.1566
vn -0.1566 -0.9125 -0.3780
vn 0.1566 -0.9125 -0.3780
vn 0.3780 -0.9125 -0.1566
vn 0.8629 -0.3574 0.3574
vn 0.8629 -0.3574 0.3574
vn 0.3574 -0.3574 0.8629
vn 0.3574 -0.3574 0.8629
vn -0.3574 -0.3574 0.8629
vn -0.3574 -0.3574 0.8629
vn -0.8629 -0.3574 0.3574
vn -0.8629 -0.3574 0.3574
vn -0.8629 -0.3574 -0.3574
vn -0.8629 -0.3574 -0.3574
vn -0.3574 -0.3574 -0.8629
vn -0.3574 -0.3574 -0.8629
vn 0.3574 -0.3574 -0.8629
vn 0.3574 -0.3574 -0.8629
vn 0.8629 -0.3574 -0.3574
vn 0.8629 -0.3574 -0.3574
vn 0.8629 0.3574 0.3574
vn 0.8629 0.3574 0.3574
vn 0.3574 0.3574 0.8629
vn 0.3574 0.3574 0.8629
vn -0.3574 0.3574 0.8629
vn -0.3574 0.3574 0.8629
vn -0.8629 0.3574 0.3574
vn -0.8629 0.3574 0.3574
vn -0.8629 0.3574 -0.3574
vn -0.8629 0.3574 -0.3574
vn -0.3574 0.3574 -0.8629
vn -0.3574 0.3574 -0.8629
vn 0.3574 0.3574 -0.8629
vn 0.3574 0.3574 -0.8629
vn 0.8629 0.3574 -0.3574
vn 0.8629 0.3574 -0.3574
vn 0.3780 0.9125 0.1566
vn 0.1566 0.9125 0.3780
vn -0.1566 0.9125 0.3780
vn -0.3780 0.9125 0.1566
vn -0.3780 0.9125 -0.1566
vn -0.1566 0.9125 -0.3780
vn 0.1566 0.9125 -0.3780
vn 0.3780 0.9125 -0.1566
vn 0.4804 -0.8321 0.2774
vn 0.0000 -0.8321 0.5547
vn -0.4804 -0.8321 0.2774
vn -0.4804 -0.8321 -0.2774
vn 0.0000 -0.8321 -0.5547
vn 0.4804 -0.8321 -0.2774
vn 0.8660 0.0000 0.5000
vn 0.8660 0.0000 0.5000
vn 0.0000 0.0000 1.0000
vn 0.0000 0.0000 1.0000
vn -0.8660 0.0000 0.5000
vn -0.8660 0.0000 0.5000
vn -0.8660 0.0000 -0.5000
vn -0.8660 -0.0000 -0.5000
vn 0.0000 0.0000 -1.0000
vn 0.0000 0.0000 -1.0000
vn 0.8660 0.0000 -0.5000
vn 0.8660 0.0000 -0.5000
vn 0.4804 0.8321 0.2774
vn 0.0000 0.8321 0.5547
vn -0.4804 0.8321 0.2774
vn -0.4804 0.8321 -0.2774
vn 0.0000 0.8321 -0.5547
vn 0.4804 0.8321 -0.2774
usemtl Mat_Gum_tomato
f 610//1136 611//1136 619//1136
f 610//1137 619//1137 618//1137
f 611//1138 612//1138 620//1138
f 611//1139 620//1139 619//1139
f 612//1140 613//1140 621//1140
f 612//1141 621//1141 620//1141
f 613//1142 614//1142 622//1142
f 613//1143 622//1143 621//1143
f 614//1144 615//1144 623//1144
f 614//1145 623//1145 622//1145
f 615//1146 616//1146 624//1146
f 615//1147 624//1147 623//1147
f 616//1148 617//1148 625//1148
f 616//1149 625//1149 624//1149
f 617//1150 610//1150 618//1150
f 617//1151 618//1151 625//1151
f 618//1152 619//1152 627//1152
f 618//1153 627//1153 626//1153
f 619//1154 620//1154 628//1154
f 619//1155 628//1155 627//1155
f 620//1156 621//1156 629//1156
f 620//1157 629//1157 628//1157
f 621//1158 622//1158 630//1158
f 621//1159 630//1159 629//1159
f 622//1160 623//1160 631//1160
f 622//1161 631//1161 630//1161
f 623//1162 624//1162 632//1162
f 623//1163 632//1163 631//1163
f 624//1164 625//1164 633//1164
f 624//1165 633//1165 632//1165
f 625//1166 618//1166 626//1166
f 625//1167 626//1167 633//1167
f 617//1168 616//1168 615//1168
f 617//1169 615//1169 614//1169
f 617//1170 614//1170 613//1170
f 617//1171 613//1171 612//1171
f 617//1172 612//1172 611//1172
f 617//1173 611//1173 610//1173
f 626//1174 627//1174 628//1174
f 626//1175 628//1175 629//1175
f 626//1176 629//1176 630//1176
f 626//1177 630//1177 631//1177
f 626//1178 631//1178 632//1178
f 626//1179 632//1179 633//1179
f 635//1180 636//1180 634//1180
f 636//1181 637//1181 634//1181
f 637//1182 638//1182 634//1182
f 638//1183 639//1183 634//1183
f 639//1184 640//1184 634//1184
f 640//1185 641//1185 634//1185
f 641//1186 642//1186 634//1186
f 642//1187 635//1187 634//1187
f 643//1188 644//1188 636//1188
f 643//1189 636//1189 635//1189
f 644//1190 645//1190 637//1190
f 644//1191 637//1191 636//1191
f 645//1192 646//1192 638//1192
f 645//1193 638//1193 637//1193
f 646//1194 647//1194 639//1194
f 646//1195 639//1195 638//1195
f 647//1196 648//1196 640//1196
f 647//1197 640//1197 639//1197
f 648//1198 649//1198 641//1198
f 648//1199 641//1199 640//1199
f 649//1200 650//1200 642//1200
f 649//1201 642//1201 641//1201
f 650//1202 643//1202 635//1202
f 650//1203 635//1203 642//1203
f 651//1204 652//1204 644//1204
f 651//1205 644//1205 643//1205
f 652//1206 653//1206 645//1206
f 652//1207 645//1207 644//1207
f 653//1208 654//1208 646//1208
f 653//1209 646//1209 645//1209
f 654//1210 655//1210 647//1210
f 654//1211 647//1211 646//1211
f 655//1212 656//1212 648//1212
f 655//1213 648//1213 647//1213
f 656//1214 657//1214 649//1214
f 656//1215 649//1215 648//1215
f 657//1216 658//1216 650//1216
f 657//1217 650//1217 649//1217
f 658//1218 651//1218 643//1218
f 658//1219 643//1219 650//1219
f 659//1220 652//1220 651//1220
f 659//1221 653//1221 652//1221
f 659//1222 654//1222 653//1222
f 659//1223 655//1223 654//1223
f 659//1224 656//1224 655//1224
f 659//1225 657//1225 656//1225
f 659//1226 658//1226 657//1226
f 659//1227 651//1227 658//1227
f 661//1228 662//1228 660//1228
f 662//1229 663//1229 660//1229
f 663//1230 664//1230 660//1230
f 664//1231 665//1231 660//1231
f 665//1232 666//1232 660//1232
f 666//1233 661//1233 660//1233
f 667//1234 668//1234 662//1234
f 667//1235 662//1235 661//1235
f 668//1236 669//1236 663//1236
f 668//1237 663//1237 662//1237
f 669//1238 670//1238 664//1238
f 669//1239 664//1239 663//1239
f 670//1240 671//1240 665//1240
f 670//1241 665//1241 664//1241
f 671//1242 672//1242 666//1242
f 671//1243 666//1243 665//1243
f 672//1244 667//1244 661//1244
f 672//1245 661//1245 666//1245
f 673//1246 668//1246 667//1246
f 673//1247 669//1247 668//1247
f 673//1248 670//1248 669//1248
f 673//1249 671//1249 670//1249
f 673//1250 672//1250 671//1250
f 673//1251 667//1251 672//1251
o Char_Native_Kid_Leg_L
v 0.22720 0.30000 0.00000
v 0.20377 0.30000 -0.05657
v 0.14720 0.30000 -0.08000
v 0.09063 0.30000 -0.05657
v 0.06720 0.30000 -0.00000
v 0.09063 0.30000 0.05657
v 0.14720 0.30000 0.08000
v 0.20377 0.30000 0.05657
v 0.22720 0.14000 0.00000
v 0.20377 0.14000 -0.05657
v 0.14720 0.14000 -0.08000
v 0.09063 0.14000 -0.05657
v 0.06720 0.14000 -0.00000
v 0.09063 0.14000 0.05657
v 0.14720 0.14000 0.08000
v 0.20377 0.14000 0.05657
v 0.06720 0.00000 -0.08000
v 0.06720 0.00000 0.10000
v 0.06720 0.16000 -0.08000
v 0.06720 0.16000 0.10000
v 0.22720 0.00000 -0.08000
v 0.22720 0.00000 0.10000
v 0.22720 0.16000 -0.08000
v 0.22720 0.16000 0.10000
v 0.14720 0.04000 0.17000
v 0.05720 0.00000 -0.10500
v 0.23720 0.00000 -0.10500
v 0.23720 0.00000 0.16500
v 0.05720 0.00000 0.16500
v 0.05720 0.03000 -0.10500
v 0.23720 0.03000 -0.10500
v 0.23720 0.03000 0.16500
v 0.05720 0.03000 0.16500
v 0.23720 0.15000 0.00000
v 0.21084 0.15000 0.06364
v 0.14720 0.15000 0.09000
v 0.08356 0.15000 0.06364
v 0.05720 0.15000 0.00000
v 0.08356 0.15000 -0.06364
v 0.14720 0.15000 -0.09000
v 0.21084 0.15000 -0.06364
v 0.24720 0.21000 0.00000
v 0.21791 0.21000 0.07071
v 0.14720 0.21000 0.10000
v 0.07649 0.21000 0.07071
v 0.04720 0.21000 0.00000
v 0.07649 0.21000 -0.07071
v 0.14720 0.21000 -0.10000
v 0.21791 0.21000 -0.07071
vn 0.9239 0.0000 -0.3827
vn 0.9239 0.0000 -0.3827
vn 0.3827 0.0000 -0.9239
vn 0.3827 0.0000 -0.9239
vn -0.3827 0.0000 -0.9239
vn -0.3827 0.0000 -0.9239
vn -0.9239 0.0000 -0.3827
vn -0.9239 0.0000 -0.3827
vn -0.9239 0.0000 0.3827
vn -0.9239 0.0000 0.3827
vn -0.3827 0.0000 0.9239
vn -0.3827 0.0000 0.9239
vn 0.3827 0.0000 0.9239
vn 0.3827 -0.0000 0.9239
vn 0.9239 0.0000 0.3827
vn 0.9239 -0.0000 0.3827
vn -0.0000 -1.0000 0.0000
vn 0.0000 -1.0000 0.0000
vn 0.0000 -1.0000 0.0000
vn 0.0000 -1.0000 0.0000
vn 0.0000 -1.0000 -0.0000
vn 0.0000 -1.0000 0.0000
vn 0.0000 1.0000 0.0000
vn 0.0000 1.0000 0.0000
vn 0.0000 1.0000 0.0000
vn 0.0000 1.0000 0.0000
vn 0.0000 1.0000 0.0000
vn 0.0000 1.0000 0.0000
vn 0.0000 -0.8682 0.4961
vn 0.6585 -0.0000 0.7526
vn -0.6585 0.0000 0.7526
vn 0.0000 0.5039 0.8638
vn 0.0000 0.0000 -1.0000
vn 0.0000 -0.0000 -1.0000
vn 0.0000 -1.0000 0.0000
vn -0.0000 -1.0000 0.0000
vn 1.0000 0.0000 0.0000
vn 1.0000 -0.0000 0.0000
vn -1.0000 0.0000 -0.0000
vn -1.0000 0.0000 0.0000
vn 0.0000 1.0000 0.0000
vn 0.0000 1.0000 0.0000
vn -0.0000 1.0000 0.0000
vn 0.0000 1.0000 0.0000
vn 0.0000 0.0000 -1.0000
vn 0.0000 0.0000 -1.0000
vn 1.0000 0.0000 -0.0000
vn 1.0000 0.0000 0.0000
vn 0.0000 0.0000 1.0000
vn 0.0000 0.0000 1.0000
vn -1.0000 0.0000 -0.0000
vn -1.0000 -0.0000 0.0000
vn 0.0000 -1.0000 0.0000
vn 0.0000 -1.0000 0.0000
vn 0.9131 -0.1522 0.3782
vn 0.9131 -0.1522 0.3782
vn 0.3782 -0.1522 0.9131
vn 0.3782 -0.1522 0.9131
vn -0.3782 -0.1522 0.9131
vn -0.3782 -0.1522 0.9131
vn -0.9131 -0.1522 0.3782
vn -0.9131 -0.1522 0.3782
vn -0.9131 -0.1522 -0.3782
vn -0.9131 -0.1522 -0.3782
vn -0.3782 -0.1522 -0.9131
vn -0.3782 -0.1522 -0.9131
vn 0.3782 -0.1522 -0.9131
vn 0.3782 -0.1522 -0.9131
vn 0.9131 -0.1522 -0.3782
vn 0.9131 -0.1522 -0.3782
vn 0.0000 1.0000 0.0000
vn 0.0000 1.0000 0.0000
vn 0.0000 1.0000 0.0000
vn 0.0000 1.0000 0.0000
vn 0.0000 1.0000 -0.0000
vn 0.0000 1.0000 0.0000
vn 0.0000 -1.0000 0.0000
vn 0.0000 -1.0000 0.0000
vn 0.0000 -1.0000 0.0000
vn -0.0000 -1.0000 0.0000
vn 0.0000 -1.0000 0.0000
vn 0.0000 -1.0000 0.0000
usemtl Mat_Gum_tomato
f 682//1252 683//1252 675//1252
f 682//1253 675//1253 674//1253
f 683//1254 684//1254 676//1254
f 683//1255 676//1255 675//1255
f 684//1256 685//1256 677//1256
f 684//1257 677//1257 676//1257
f 685//1258 686//1258 678//1258
f 685//1259 678//1259 677//1259
f 686//1260 687//1260 679//1260
f 686//1261 679//1261 678//1261
f 687//1262 688//1262 680//1262
f 687//1263 680//1263 679//1263
f 688//1264 689//1264 681//1264
f 688//1265 681//1265 680//1265
f 689//1266 682//1266 674//1266
f 689//1267 674//1267 681//1267
f 689//1268 688//1268 687//1268
f 689//1269 687//1269 686//1269
f 689//1270 686//1270 685//1270
f 689//1271 685//1271 684//1271
f 689//1272 684//1272 683//1272
f 689//1273 683//1273 682//1273
f 674//1274 675//1274 676//1274
f 674//1275 676//1275 677//1275
f 674//1276 677//1276 678//1276
f 674//1277 678//1277 679//1277
f 674//1278 679//1278 680//1278
f 674//1279 680//1279 681//1279
usemtl Mat_Leather
f 698//1280 691//1280 695//1280
f 695//1281 697//1281 698//1281
f 693//1282 691//1282 698//1282
f 698//1283 697//1283 693//1283
f 690//1284 692//1284 696//1284
f 696//1285 694//1285 690//1285
f 690//1286 694//1286 695//1286
f 695//1287 691//1287 690//1287
f 694//1288 696//1288 695//1288
f 695//1289 696//1289 697//1289
f 693//1290 692//1290 690//1290
f 690//1291 691//1291 693//1291
f 693//1292 696//1292 692//1292
f 697//1293 696//1293 693//1293
usemtl Mat_DarkWood
f 706//1294 705//1294 704//1294
f 706//1295 704//1295 703//1295
f 703//1296 704//1296 700//1296
f 703//1297 700//1297 699//1297
f 704//1298 705//1298 701//1298
f 704//1299 701//1299 700//1299
f 705//1300 706//1300 702//1300
f 705//1301 702//1301 701//1301
f 706//1302 703//1302 699//1302
f 706//1303 699//1303 702//1303
f 700//1304 701//1304 702//1304
f 700//1305 702//1305 699//1305
usemtl Mat_Leather
f 715//1306 716//1306 708//1306
f 715//1307 708//1307 707//1307
f 716//1308 717//1308 709//1308
f 716//1309 709//1309 708//1309
f 717//1310 718//1310 710//1310
f 717//1311 710//1311 709//1311
f 718//1312 719//1312 711//1312
f 718//1313 711//1313 710//1313
f 719//1314 720//1314 712//1314
f 719//1315 712//1315 711//1315
f 720//1316 721//1316 713//1316
f 720//1317 713//1317 712//1317
f 721//1318 722//1318 714//1318
f 721//1319 714//1319 713//1319
f 722//1320 715//1320 707//1320
f 722//1321 707//1321 714//1321
f 722//1322 721//1322 720//1322
f 722//1323 720//1323 719//1323
f 722//1324 719//1324 718//1324
f 722//1325 718//1325 717//1325
f 722//1326 717//1326 716//1326
f 722//1327 716//1327 715//1327
f 707//1328 708//1328 709//1328
f 707//1329 709//1329 710//1329
f 707//1330 710//1330 711//1330
f 707//1331 711//1331 712//1331
f 707//1332 712//1332 713//1332
f 707//1333 713//1333 714//1333
o Char_Native_Kid_Leg_R
v -0.06720 0.30000 0.00000
v -0.09063 0.30000 -0.05657
v -0.14720 0.30000 -0.08000
v -0.20377 0.30000 -0.05657
v -0.22720 0.30000 -0.00000
v -0.20377 0.30000 0.05657
v -0.14720 0.30000 0.08000
v -0.09063 0.30000 0.05657
v -0.06720 0.14000 0.00000
v -0.09063 0.14000 -0.05657
v -0.14720 0.14000 -0.08000
v -0.20377 0.14000 -0.05657
v -0.22720 0.14000 -0.00000
v -0.20377 0.14000 0.05657
v -0.14720 0.14000 0.08000
v -0.09063 0.14000 0.05657
v -0.22720 0.00000 -0.08000
v -0.22720 0.00000 0.10000
v -0.22720 0.16000 -0.08000
v -0.22720 0.16000 0.10000
v -0.06720 0.00000 -0.08000
v -0.06720 0.00000 0.10000
v -0.06720 0.16000 -0.08000
v -0.06720 0.16000 0.10000
v -0.14720 0.04000 0.17000
v -0.23720 0.00000 -0.10500
v -0.05720 0.00000 -0.10500
v -0.05720 0.00000 0.16500
v -0.23720 0.00000 0.16500
v -0.23720 0.03000 -0.10500
v -0.05720 0.03000 -0.10500
v -0.05720 0.03000 0.16500
v -0.23720 0.03000 0.16500
v -0.05720 0.15000 0.00000
v -0.08356 0.15000 0.06364
v -0.14720 0.15000 0.09000
v -0.21084 0.15000 0.06364
v -0.23720 0.15000 0.00000
v -0.21084 0.15000 -0.06364
v -0.14720 0.15000 -0.09000
v -0.08356 0.15000 -0.06364
v -0.04720 0.21000 0.00000
v -0.07649 0.21000 0.07071
v -0.14720 0.21000 0.10000
v -0.21791 0.21000 0.07071
v -0.24720 0.21000 0.00000
v -0.21791 0.21000 -0.07071
v -0.14720 0.21000 -0.10000
v -0.07649 0.21000 -0.07071
vn 0.9239 0.0000 -0.3827
vn 0.9239 0.0000 -0.3827
vn 0.3827 0.0000 -0.9239
vn 0.3827 0.0000 -0.9239
vn -0.3827 0.0000 -0.9239
vn -0.3827 0.0000 -0.9239
vn -0.9239 0.0000 -0.3827
vn -0.9239 0.0000 -0.3827
vn -0.9239 0.0000 0.3827
vn -0.9239 0.0000 0.3827
vn -0.3827 0.0000 0.9239
vn -0.3827 0.0000 0.9239
vn 0.3827 0.0000 0.9239
vn 0.3827 -0.0000 0.9239
vn 0.9239 0.0000 0.3827
vn 0.9239 -0.0000 0.3827
vn -0.0000 -1.0000 0.0000
vn 0.0000 -1.0000 0.0000
vn 0.0000 -1.0000 0.0000
vn 0.0000 -1.0000 0.0000
vn 0.0000 -1.0000 -0.0000
vn 0.0000 -1.0000 0.0000
vn 0.0000 1.0000 0.0000
vn 0.0000 1.0000 0.0000
vn 0.0000 1.0000 0.0000
vn 0.0000 1.0000 0.0000
vn 0.0000 1.0000 0.0000
vn 0.0000 1.0000 0.0000
vn 0.0000 -0.8682 0.4961
vn 0.6585 -0.0000 0.7526
vn -0.6585 0.0000 0.7526
vn 0.0000 0.5039 0.8638
vn 0.0000 0.0000 -1.0000
vn 0.0000 -0.0000 -1.0000
vn 0.0000 -1.0000 0.0000
vn -0.0000 -1.0000 0.0000
vn 1.0000 0.0000 0.0000
vn 1.0000 -0.0000 0.0000
vn -1.0000 0.0000 -0.0000
vn -1.0000 0.0000 0.0000
vn 0.0000 1.0000 0.0000
vn 0.0000 1.0000 0.0000
vn -0.0000 1.0000 0.0000
vn 0.0000 1.0000 0.0000
vn 0.0000 0.0000 -1.0000
vn 0.0000 0.0000 -1.0000
vn 1.0000 0.0000 -0.0000
vn 1.0000 0.0000 0.0000
vn 0.0000 0.0000 1.0000
vn 0.0000 0.0000 1.0000
vn -1.0000 0.0000 -0.0000
vn -1.0000 -0.0000 0.0000
vn 0.0000 -1.0000 0.0000
vn 0.0000 -1.0000 0.0000
vn 0.9131 -0.1522 0.3782
vn 0.9131 -0.1522 0.3782
vn 0.3782 -0.1522 0.9131
vn 0.3782 -0.1522 0.9131
vn -0.3782 -0.1522 0.9131
vn -0.3782 -0.1522 0.9131
vn -0.9131 -0.1522 0.3782
vn -0.9131 -0.1522 0.3782
vn -0.9131 -0.1522 -0.3782
vn -0.9131 -0.1522 -0.3782
vn -0.3782 -0.1522 -0.9131
vn -0.3782 -0.1522 -0.9131
vn 0.3782 -0.1522 -0.9131
vn 0.3782 -0.1522 -0.9131
vn 0.9131 -0.1522 -0.3782
vn 0.9131 -0.1522 -0.3782
vn 0.0000 1.0000 0.0000
vn 0.0000 1.0000 0.0000
vn 0.0000 1.0000 0.0000
vn 0.0000 1.0000 0.0000
vn 0.0000 1.0000 -0.0000
vn 0.0000 1.0000 0.0000
vn 0.0000 -1.0000 0.0000
vn 0.0000 -1.0000 0.0000
vn 0.0000 -1.0000 0.0000
vn -0.0000 -1.0000 0.0000
vn 0.0000 -1.0000 0.0000
vn 0.0000 -1.0000 0.0000
usemtl Mat_Gum_tomato
f 731//1334 732//1334 724//1334
f 731//1335 724//1335 723//1335
f 732//1336 733//1336 725//1336
f 732//1337 725//1337 724//1337
f 733//1338 734//1338 726//1338
f 733//1339 726//1339 725//1339
f 734//1340 735//1340 727//1340
f 734//1341 727//1341 726//1341
f 735//1342 736//1342 728//1342
f 735//1343 728//1343 727//1343
f 736//1344 737//1344 729//1344
f 736//1345 729//1345 728//1345
f 737//1346 738//1346 730//1346
f 737//1347 730//1347 729//1347
f 738//1348 731//1348 723//1348
f 738//1349 723//1349 730//1349
f 738//1350 737//1350 736//1350
f 738//1351 736//1351 735//1351
f 738//1352 735//1352 734//1352
f 738//1353 734//1353 733//1353
f 738//1354 733//1354 732//1354
f 738//1355 732//1355 731//1355
f 723//1356 724//1356 725//1356
f 723//1357 725//1357 726//1357
f 723//1358 726//1358 727//1358
f 723//1359 727//1359 728//1359
f 723//1360 728//1360 729//1360
f 723//1361 729//1361 730//1361
usemtl Mat_Leather
f 747//1362 740//1362 744//1362
f 744//1363 746//1363 747//1363
f 742//1364 740//1364 747//1364
f 747//1365 746//1365 742//1365
f 739//1366 741//1366 745//1366
f 745//1367 743//1367 739//1367
f 739//1368 743//1368 744//1368
f 744//1369 740//1369 739//1369
f 743//1370 745//1370 744//1370
f 744//1371 745//1371 746//1371
f 742//1372 741//1372 739//1372
f 739//1373 740//1373 742//1373
f 742//1374 745//1374 741//1374
f 746//1375 745//1375 742//1375
usemtl Mat_DarkWood
f 755//1376 754//1376 753//1376
f 755//1377 753//1377 752//1377
f 752//1378 753//1378 749//1378
f 752//1379 749//1379 748//1379
f 753//1380 754//1380 750//1380
f 753//1381 750//1381 749//1381
f 754//1382 755//1382 751//1382
f 754//1383 751//1383 750//1383
f 755//1384 752//1384 748//1384
f 755//1385 748//1385 751//1385
f 749//1386 750//1386 751//1386
f 749//1387 751//1387 748//1387
usemtl Mat_Leather
f 764//1388 765//1388 757//1388
f 764//1389 757//1389 756//1389
f 765//1390 766//1390 758//1390
f 765//1391 758//1391 757//1391
f 766//1392 767//1392 759//1392
f 766//1393 759//1393 758//1393
f 767//1394 768//1394 760//1394
f 767//1395 760//1395 759//1395
f 768//1396 769//1396 761//1396
f 768//1397 761//1397 760//1397
f 769//1398 770//1398 762//1398
f 769//1399 762//1399 761//1399
f 770//1400 771//1400 763//1400
f 770//1401 763//1401 762//1401
f 771//1402 764//1402 756//1402
f 771//1403 756//1403 763//1403
f 771//1404 770//1404 769//1404
f 771//1405 769//1405 768//1405
f 771//1406 768//1406 767//1406
f 771//1407 767//1407 766//1407
f 771//1408 766//1408 765//1408
f 771//1409 765//1409 764//1409
f 756//1410 757//1410 758//1410
f 756//1411 758//1411 759//1411
f 756//1412 759//1412 760//1412
f 756//1413 760//1413 761//1413
f 756//1414 761//1414 762//1414
f 756//1415 762//1415 763//1415
